<?xml version="1.0" encoding="utf-8"?>
<!-- Generator: Adobe Illustrator 28.1.0, SVG Export Plug-In . SVG Version: 6.00 Build 0)  -->
<svg version="1.1" id="Layer_1" xmlns="http://www.w3.org/2000/svg" xmlns:xlink="http://www.w3.org/1999/xlink" x="0px" y="0px"
	 viewBox="0 0 100 100" style="enable-background:new 0 0 100 100;" xml:space="preserve">
<style type="text/css">
	.st0{fill:#BE1622;}
</style>
<path class="st0" d="M24.5,88.4H13.1c-0.4,0-0.7-0.3-0.7-0.7V60.3c0-0.4,0.3-0.7,0.7-0.7h11.3c0.4,0,0.7,0.3,0.7,0.7v27.5
	C25.1,88.1,24.8,88.4,24.5,88.4z M13.8,87.1h10V60.9h-10V87.1z"/>
<path class="st0" d="M45.3,88.4H33.9c-0.4,0-0.7-0.3-0.7-0.7v-40c0-0.4,0.3-0.7,0.7-0.7h11.3c0.4,0,0.7,0.3,0.7,0.7v40
	C45.9,88.1,45.6,88.4,45.3,88.4z M34.6,87.1h10V48.4h-10L34.6,87.1z"/>
<path class="st0" d="M66.1,88.4H54.7c-0.4,0-0.7-0.3-0.7-0.7V35.3c0-0.4,0.3-0.7,0.7-0.7h11.3c0.4,0,0.7,0.3,0.7,0.7v52.5
	C66.7,88.1,66.4,88.4,66.1,88.4z M55.4,87.1h10V36h-10L55.4,87.1z"/>
<path class="st0" d="M86.9,88.4H75.5c-0.4,0-0.7-0.3-0.7-0.7v-65c0-0.4,0.3-0.7,0.7-0.7h11.3c0.4,0,0.7,0.3,0.7,0.7v65
	C87.6,88.1,87.3,88.4,86.9,88.4z M76.2,87.1h10V23.5h-10V87.1z"/>
<path class="st0" d="M92.7,93.3H7.3c-0.4,0-0.7-0.3-0.7-0.7v-4.9c0-0.4,0.3-0.7,0.7-0.7h85.3c0.4,0,0.7,0.3,0.7,0.7v4.9
	C93.3,93,93,93.3,92.7,93.3z M8,92h84v-3.6H8V92z"/>
<path class="st0" d="M21.8,47.1c-0.4,0-0.7-0.3-0.7-0.7c0-0.2,0.1-0.5,0.3-0.6l14.8-8.8c0.3-0.2,0.7-0.1,0.9,0.2
	c0.2,0.3,0.1,0.7-0.2,0.9L22.1,47C22,47.1,21.9,47.1,21.8,47.1z"/>
<path class="st0" d="M63.6,22.5c-0.4,0-0.7-0.3-0.7-0.7c0-0.2,0.1-0.5,0.3-0.6l14.9-8.8c0.3-0.2,0.7-0.1,0.9,0.2s0.1,0.7-0.2,0.9
	l0,0l-14.9,8.8C63.8,22.4,63.7,22.5,63.6,22.5z"/>
<path class="st0" d="M42.7,34.8c-0.4,0-0.7-0.3-0.7-0.7c0-0.2,0.1-0.5,0.3-0.6l14.9-8.8c0.3-0.2,0.7-0.1,0.9,0.2
	c0.2,0.3,0.1,0.7-0.2,0.9l0,0L43,34.7C42.9,34.8,42.8,34.8,42.7,34.8z"/>
<path class="st0" d="M18.8,52.4c-2.3,0-4.2-1.9-4.2-4.2c0-2.3,1.9-4.2,4.2-4.2c2.3,0,4.2,1.9,4.2,4.2c0,0,0,0,0,0
	C23,50.5,21.1,52.4,18.8,52.4z M18.8,45.4c-1.6,0-2.8,1.3-2.8,2.8c0,1.6,1.3,2.8,2.8,2.8c1.6,0,2.8-1.3,2.8-2.8c0,0,0,0,0,0
	C21.6,46.7,20.4,45.4,18.8,45.4z"/>
<path class="st0" d="M39.6,39.9c-2.3,0-4.2-1.9-4.2-4.2s1.9-4.2,4.2-4.2c2.3,0,4.2,1.9,4.2,4.2C43.8,38.1,41.9,39.9,39.6,39.9z
	 M39.6,32.9c-1.6,0-2.8,1.3-2.8,2.8c0,1.6,1.3,2.8,2.8,2.8c1.6,0,2.8-1.3,2.8-2.8C42.4,34.2,41.2,32.9,39.6,32.9z"/>
<path class="st0" d="M60.4,27.5c-2.3,0-4.2-1.9-4.2-4.2c0-2.3,1.9-4.2,4.2-4.2c2.3,0,4.2,1.9,4.2,4.2C64.6,25.6,62.7,27.5,60.4,27.5
	z M60.4,20.5c-1.6,0-2.8,1.3-2.8,2.8c0,1.6,1.3,2.8,2.8,2.8c1.6,0,2.8-1.3,2.8-2.8v0C63.2,21.7,62,20.5,60.4,20.5z"/>
<path class="st0" d="M81.2,15c-2.3,0-4.2-1.9-4.2-4.2c0-2.3,1.9-4.2,4.2-4.2c2.3,0,4.2,1.9,4.2,4.2v0C85.4,13.2,83.5,15,81.2,15z
	 M81.2,8c-1.6,0-2.8,1.3-2.8,2.8c0,1.6,1.3,2.8,2.8,2.8c1.6,0,2.8-1.3,2.8-2.8v0C84.1,9.3,82.8,8,81.2,8z"/>
<path class="st0" d="M15.8,77.2c-0.4,0-0.7-0.3-0.7-0.7V64.6c0-0.4,0.3-0.7,0.7-0.7c0.4,0,0.7,0.3,0.7,0.7v11.9
	C16.4,76.9,16.1,77.2,15.8,77.2z"/>
<path class="st0" d="M15.8,85.8c-0.4,0-0.7-0.3-0.7-0.7V80c0-0.4,0.3-0.7,0.7-0.7c0.4,0,0.7,0.3,0.7,0.7v5.1
	C16.4,85.5,16.1,85.8,15.8,85.8z"/>
<path class="st0" d="M36.6,77.2c-0.4,0-0.7-0.3-0.7-0.7V52.2c0-0.4,0.3-0.7,0.7-0.7s0.7,0.3,0.7,0.7v24.4
	C37.3,76.9,37,77.2,36.6,77.2z"/>
<path class="st0" d="M36.6,85.8c-0.4,0-0.7-0.3-0.7-0.7V80c0-0.4,0.3-0.7,0.7-0.7s0.7,0.3,0.7,0.7v5.1C37.3,85.5,37,85.8,36.6,85.8z
	"/>
<path class="st0" d="M57.4,77.2c-0.4,0-0.7-0.3-0.7-0.7V40.7c0-0.4,0.3-0.7,0.7-0.7c0.4,0,0.7,0.3,0.7,0.7v35.8
	C58.1,76.9,57.8,77.2,57.4,77.2z"/>
<path class="st0" d="M57.4,85.8c-0.4,0-0.7-0.3-0.7-0.7V80c0-0.4,0.3-0.7,0.7-0.7c0.4,0,0.7,0.3,0.7,0.7v5.1
	C58.1,85.5,57.8,85.8,57.4,85.8z"/>
<path class="st0" d="M78.2,77.2c-0.4,0-0.7-0.3-0.7-0.7V29.6c0-0.4,0.3-0.7,0.7-0.7s0.7,0.3,0.7,0.7v46.9
	C78.9,76.9,78.6,77.2,78.2,77.2z"/>
<path class="st0" d="M78.2,85.8c-0.4,0-0.7-0.3-0.7-0.7V80c0-0.4,0.3-0.7,0.7-0.7s0.7,0.3,0.7,0.7v5.1
	C78.9,85.5,78.6,85.8,78.2,85.8z"/>
</svg>
