<?xml version="1.0" encoding="utf-8"?>
<!-- Generator: Adobe Illustrator 28.1.0, SVG Export Plug-In . SVG Version: 6.00 Build 0)  -->
<svg version="1.1" id="Layer_1" xmlns="http://www.w3.org/2000/svg" xmlns:xlink="http://www.w3.org/1999/xlink" x="0px" y="0px"
	 viewBox="0 0 100 100" style="enable-background:new 0 0 100 100;" xml:space="preserve">
<style type="text/css">
	.st0{fill:#BE1622;}
</style>
<path class="st0" d="M31.7,93.3H9.9c-1.8,0-3.2-1.4-3.2-3.2v-3.7c0-3.8,2.8-6.9,6.3-6.9h3.7c0.2,0,0.4,0.1,0.5,0.2
	c0.9,1.1,2.2,1.7,3.5,1.7c1.4,0,2.7-0.6,3.6-1.7c0.1-0.2,0.3-0.2,0.5-0.2h3.7c3.5,0,6.3,3.1,6.3,6.9v3.7
	C34.9,91.9,33.5,93.3,31.7,93.3z M13,80.9c-2.8,0-5,2.5-5,5.5v3.7c0,1,0.8,1.9,1.9,1.9h21.8c1,0,1.9-0.8,1.9-1.9v-3.7
	c0-3.1-2.2-5.5-5-5.5h-3.4c-1.1,1.2-2.7,1.9-4.4,1.9c-1.7,0-3.2-0.7-4.4-1.9L13,80.9z"/>
<path class="st0" d="M30.1,93.3H11.4c-0.4,0-0.7-0.3-0.7-0.7V86c0-0.4,0.3-0.7,0.7-0.7s0.7,0.3,0.7,0.7v6h17.3v-6
	c0-0.4,0.3-0.7,0.7-0.7c0.4,0,0.7,0.3,0.7,0.7v6.7C30.8,93,30.5,93.3,30.1,93.3z"/>
<path class="st0" d="M20.8,78.9c-4.9,0-8.7-5.3-8.7-12.1c0-4.1,3.7-8.6,8.7-8.6s8.7,4.5,8.7,8.6C29.5,73.6,25.6,78.9,20.8,78.9z
	 M20.8,59.6c-4.2,0-7.3,3.8-7.3,7.3c0,5.9,3.3,10.7,7.3,10.7s7.3-4.8,7.3-10.7C28.1,63.4,25,59.6,20.8,59.6L20.8,59.6z"/>
<path class="st0" d="M28.7,69.2c-5.3,0-7.9-3-8.9-4.6c-2.7,2.8-6.8,3.2-7,3.2c-0.4,0-0.7-0.2-0.7-0.6c0-0.4,0.2-0.7,0.6-0.7
	c0,0,4.4-0.4,6.7-3.4c0.2-0.3,0.6-0.4,0.9-0.1c0.1,0.1,0.2,0.2,0.2,0.3c0.1,0.2,2.1,4.7,8.2,4.7c0.4,0,0.7,0.3,0.7,0.7
	S29.1,69.3,28.7,69.2L28.7,69.2z"/>
<path class="st0" d="M61,41.8H39.2c-1.8,0-3.2-1.4-3.2-3.2v-3.7c0-3.8,2.8-6.9,6.3-6.9H46c0.2,0,0.4,0.1,0.5,0.2
	c1.6,2,4.5,2.2,6.5,0.6c0.2-0.2,0.4-0.4,0.6-0.6c0.1-0.2,0.3-0.2,0.5-0.2h3.7c3.5,0,6.3,3.1,6.3,6.9v3.7
	C64.2,40.3,62.8,41.7,61,41.8z M42.3,29.3c-2.8,0-5,2.5-5,5.5v3.7c0,1,0.8,1.9,1.9,1.9H61c1,0,1.9-0.8,1.9-1.9v-3.7
	c0-3.1-2.2-5.5-5-5.5h-3.4c-2.2,2.4-6,2.6-8.4,0.4c-0.1-0.1-0.3-0.2-0.4-0.4L42.3,29.3z"/>
<path class="st0" d="M59.4,41.8H40.8c-0.4,0-0.7-0.3-0.7-0.7v-6.7c0-0.4,0.3-0.7,0.7-0.7c0.4,0,0.7,0.3,0.7,0.7v6h17.3v-6
	c0-0.4,0.3-0.7,0.7-0.7c0.4,0,0.7,0.3,0.7,0.7v6.7C60.1,41.5,59.8,41.8,59.4,41.8z"/>
<path class="st0" d="M50.1,27.3c-4.9,0-8.7-5.3-8.7-12.1c0-4.1,3.7-8.6,8.7-8.6s8.7,4.5,8.7,8.6C58.8,22,55,27.3,50.1,27.3z M50.1,8
	c-4.2,0-7.3,3.8-7.3,7.3c0,5.9,3.3,10.7,7.3,10.7s7.3-4.8,7.3-10.7C57.4,11.8,54.3,8,50.1,8z"/>
<path class="st0" d="M58,17.7c-5.3,0-7.9-3.1-8.9-4.6c-2.7,2.8-6.8,3.2-7,3.2c-0.4,0-0.7-0.3-0.7-0.6c0-0.4,0.2-0.7,0.6-0.7
	c0,0,4.4-0.4,6.7-3.4c0.2-0.3,0.6-0.4,0.9-0.1c0.1,0.1,0.2,0.2,0.2,0.3c0.1,0.2,2.1,4.7,8.2,4.7c0.4,0,0.7,0.3,0.7,0.7
	C58.7,17.4,58.4,17.7,58,17.7z"/>
<path class="st0" d="M90.1,93.3H68.3c-1.8,0-3.2-1.4-3.2-3.2v-3.7c0-3.8,2.8-6.9,6.3-6.9h3.7c0.2,0,0.4,0.1,0.5,0.2
	c0.9,1.1,2.2,1.7,3.5,1.7c1.4,0,2.7-0.6,3.6-1.7c0.1-0.2,0.3-0.2,0.5-0.2H87c3.5,0,6.3,3.1,6.3,6.9v3.7
	C93.3,91.9,91.9,93.3,90.1,93.3z M71.4,80.9c-2.8,0-5,2.5-5,5.5v3.7c0,1,0.8,1.9,1.9,1.9h21.8c1,0,1.9-0.8,1.9-1.9v-3.7
	c0-3.1-2.2-5.5-5-5.5h-3.4c-1.1,1.2-2.7,1.9-4.4,1.9c-1.7,0-3.2-0.7-4.4-1.9L71.4,80.9z"/>
<path class="st0" d="M88.6,93.3H69.9c-0.4,0-0.7-0.3-0.7-0.7V86c0-0.4,0.3-0.7,0.7-0.7c0.4,0,0.7,0.3,0.7,0.7v6h17.3v-6
	c0-0.4,0.3-0.7,0.7-0.7s0.7,0.3,0.7,0.7v6.7C89.2,93,88.9,93.3,88.6,93.3z"/>
<path class="st0" d="M79.2,78.9c-4.9,0-8.7-5.3-8.7-12.1c0-4.1,3.7-8.6,8.7-8.6s8.7,4.5,8.7,8.6C87.9,73.6,84.1,78.9,79.2,78.9z
	 M79.2,59.6c-4.2,0-7.3,3.8-7.3,7.3c0,5.9,3.3,10.7,7.3,10.7c4,0,7.3-4.8,7.3-10.7C86.6,63.4,83.4,59.6,79.2,59.6L79.2,59.6z"/>
<path class="st0" d="M87.1,69.2c-5.3,0-7.9-3-8.9-4.6c-2.7,2.8-6.8,3.2-7,3.2c-0.4,0-0.7-0.2-0.7-0.6s0.2-0.7,0.6-0.7
	c0,0,4.4-0.4,6.7-3.4c0.2-0.3,0.6-0.4,0.9-0.1c0.1,0.1,0.2,0.2,0.2,0.3c0.1,0.2,2.1,4.7,8.2,4.7c0.4,0,0.7,0.3,0.7,0.7
	C87.8,69,87.5,69.2,87.1,69.2z"/>
<path class="st0" d="M50.1,73.9c-7.1,0-12.8-5.8-12.8-12.8S43,48.2,50.1,48.2c7.1,0,12.8,5.8,12.8,12.8c0,0,0,0,0,0
	C62.9,68.1,57.2,73.9,50.1,73.9z M50.1,49.5c-6.4,0-11.5,5.2-11.5,11.5c0,6.4,5.2,11.5,11.5,11.5c6.4,0,11.5-5.2,11.5-11.5
	c0,0,0,0,0,0C61.6,54.7,56.5,49.5,50.1,49.5z"/>
<path class="st0" d="M50.1,71.3c-5.6,0-10.2-4.6-10.2-10.2s4.6-10.2,10.2-10.2c5.6,0,10.2,4.6,10.2,10.2c0,0,0,0,0,0
	C60.3,66.7,55.7,71.3,50.1,71.3z M50.1,52.1c-4.9,0-8.9,4-8.9,8.9c0,4.9,4,8.9,8.9,8.9c4.9,0,8.9-4,8.9-8.9
	C59,56.1,55,52.1,50.1,52.1L50.1,52.1z"/>
<path class="st0" d="M50.1,67.6c-2,0-3.6-1.6-3.6-3.6c0-0.4,0.3-0.7,0.7-0.7c0.4,0,0.7,0.3,0.7,0.7c0,1.3,1,2.3,2.3,2.3
	c1.3,0,2.3-1,2.3-2.3c0-1.3-1-2.3-2.3-2.3c-2,0-3.6-1.6-3.6-3.6s1.6-3.6,3.6-3.6s3.6,1.6,3.6,3.6c0,0,0,0,0,0c0,0.4-0.3,0.7-0.7,0.7
	c-0.4,0-0.7-0.3-0.7-0.7c0-1.3-1-2.3-2.3-2.3c-1.3,0-2.3,1-2.3,2.3s1,2.3,2.3,2.3c0,0,0,0,0,0c2,0,3.6,1.7,3.6,3.7
	C53.6,66,52.1,67.6,50.1,67.6L50.1,67.6z"/>
<path class="st0" d="M50.1,55.8c-0.4,0-0.7-0.3-0.7-0.7v-0.8c0-0.4,0.3-0.7,0.7-0.7c0.4,0,0.7,0.3,0.7,0.7v0.8
	C50.8,55.5,50.5,55.8,50.1,55.8z"/>
<path class="st0" d="M50.1,68.5c-0.4,0-0.7-0.3-0.7-0.7V67c0-0.4,0.3-0.7,0.7-0.7c0.4,0,0.7,0.3,0.7,0.7v0.8
	C50.8,68.2,50.5,68.5,50.1,68.5z"/>
<path class="st0" d="M31.2,81.6c-0.4,0-0.7-0.3-0.7-0.7c0-0.2,0.1-0.3,0.2-0.5l10.4-11.2c0.3-0.3,0.7-0.3,0.9,0
	c0.3,0.3,0.3,0.7,0,0.9l0,0L31.6,81.4C31.5,81.5,31.3,81.6,31.2,81.6z"/>
<path class="st0" d="M69,81.6c-0.2,0-0.4-0.1-0.5-0.2L58.1,70.2c-0.3-0.3-0.2-0.7,0-0.9s0.7-0.2,0.9,0l0,0l10.4,11.2
	c0.3,0.3,0.2,0.7,0,0.9C69.4,81.5,69.2,81.6,69,81.6z"/>
<path class="st0" d="M50.1,49.5c-0.4,0-0.7-0.3-0.7-0.7v-7.8c0-0.4,0.3-0.7,0.7-0.7c0.4,0,0.7,0.3,0.7,0.7v7.8
	C50.8,49.2,50.5,49.5,50.1,49.5z"/>
</svg>
