<?xml version="1.0" encoding="utf-8"?>
<!-- Generator: Adobe Illustrator 28.1.0, SVG Export Plug-In . SVG Version: 6.00 Build 0)  -->
<svg version="1.1" id="Layer_1" xmlns="http://www.w3.org/2000/svg" xmlns:xlink="http://www.w3.org/1999/xlink" x="0px" y="0px"
	 viewBox="0 0 100 100" style="enable-background:new 0 0 100 100;" xml:space="preserve">
<style type="text/css">
	.st0{fill:#BE1622;}
</style>
<path class="st0" d="M54.8,93.3h-9.7c-0.3,0-0.6-0.2-0.7-0.5l-1.9-10c-2-0.5-4-1.1-5.9-1.9l-7.4,6.9c-0.2,0.2-0.6,0.2-0.8,0.1
	l-7.8-5.7c-0.3-0.2-0.3-0.5-0.2-0.8l4.3-9.2c-1.4-1.6-2.6-3.2-3.7-5L11,68.5c-0.3,0-0.6-0.2-0.7-0.5l-3-9.2c-0.1-0.3,0-0.6,0.3-0.8
	l8.9-4.9c-0.1-1-0.1-2.1-0.1-3.1c0-1,0-2.1,0.1-3.1L7.6,42c-0.3-0.2-0.4-0.5-0.3-0.8l3-9.2c0.1-0.3,0.4-0.5,0.7-0.5l10.1,1.3
	c1.1-1.8,2.3-3.5,3.7-5l-4.3-9.2c-0.1-0.3,0-0.6,0.2-0.8l7.8-5.7c0.3-0.2,0.6-0.2,0.8,0.1l7.4,6.9c1.9-0.8,3.9-1.5,5.9-1.9l1.9-10
	c0.1-0.3,0.3-0.5,0.7-0.5h9.7c0.3,0,0.6,0.2,0.7,0.5l1.9,10c2,0.5,4,1.1,5.9,1.9l7.4-6.9c0.2-0.2,0.6-0.2,0.8-0.1l7.8,5.7
	c0.3,0.2,0.3,0.5,0.2,0.8l-4.3,9.2c1.4,1.6,2.6,3.2,3.7,5L89,31.6c0.3,0,0.6,0.2,0.7,0.5l3,9.2c0.1,0.3,0,0.6-0.3,0.8l-8.9,4.9
	c0.1,1,0.1,2.1,0.1,3.1s0,2.1-0.1,3.1l8.9,4.9c0.3,0.2,0.4,0.5,0.3,0.8l-3,9.2c-0.1,0.3-0.4,0.5-0.7,0.5l-10.1-1.3
	c-1.1,1.8-2.3,3.5-3.7,5l4.3,9.2c0.1,0.3,0,0.6-0.2,0.8l-7.8,5.7c-0.3,0.2-0.6,0.2-0.8-0.1l-7.4-6.9c-1.9,0.8-3.9,1.5-5.9,1.9
	l-1.9,10C55.4,93.1,55.2,93.3,54.8,93.3z M45.7,92h8.6l1.9-9.8c0.1-0.3,0.3-0.5,0.5-0.5c2.2-0.5,4.4-1.2,6.5-2.1
	c0.2-0.1,0.5-0.1,0.7,0.1l7.3,6.9l6.9-5l-4.3-9.1c-0.1-0.2-0.1-0.5,0.1-0.7c1.5-1.7,2.9-3.5,4-5.5c0.1-0.2,0.4-0.4,0.7-0.3l10,1.3
	l2.7-8.2l-8.8-4.8c-0.2-0.1-0.4-0.4-0.3-0.7c0.2-2.3,0.2-4.6,0-6.8c0-0.3,0.1-0.5,0.3-0.7l8.8-4.8l-2.7-8.2l-10,1.3
	c-0.3,0-0.5-0.1-0.7-0.3c-1.1-2-2.5-3.8-4-5.5c-0.2-0.2-0.2-0.5-0.1-0.7l4.3-9.1l-6.9-5l-7.3,6.9c-0.2,0.2-0.5,0.2-0.7,0.1
	c-2.1-0.9-4.3-1.6-6.5-2.1c-0.3-0.1-0.5-0.3-0.5-0.5L54.3,8h-8.6l-1.9,9.8c-0.1,0.3-0.3,0.5-0.5,0.5c-2.2,0.5-4.4,1.2-6.5,2.1
	c-0.2,0.1-0.5,0.1-0.7-0.1l-7.3-6.9l-6.9,5l4.3,9.1c0.1,0.2,0.1,0.5-0.1,0.7c-1.5,1.7-2.9,3.5-4,5.5c-0.1,0.2-0.4,0.4-0.7,0.3
	l-10-1.3l-2.6,8.2l8.8,4.8c0.2,0.1,0.4,0.4,0.3,0.7c-0.2,2.3-0.2,4.6,0,6.8c0,0.3-0.1,0.5-0.3,0.7l-8.8,4.8l2.7,8.2l9.9-1.3
	c0.3,0,0.5,0.1,0.7,0.3c1.1,2,2.5,3.8,4,5.5c0.2,0.2,0.2,0.5,0.1,0.7l-4.3,9.1l6.9,5l7.3-6.9c0.2-0.2,0.5-0.2,0.7-0.1
	c2.1,0.9,4.3,1.6,6.5,2.1c0.3,0.1,0.5,0.3,0.5,0.5L45.7,92z"/>
<path class="st0" d="M50,77.6c-15.2,0-27.6-12.3-27.6-27.6S34.8,22.4,50,22.4S77.6,34.8,77.6,50C77.5,65.2,65.2,77.5,50,77.6z
	 M50,23.8c-14.5,0-26.2,11.7-26.2,26.2S35.5,76.2,50,76.2S76.2,64.5,76.2,50l0,0C76.2,35.5,64.5,23.8,50,23.8z"/>
<path class="st0" d="M50,30.4c-0.4,0-0.7-0.3-0.7-0.7v-2.6c0-0.4,0.3-0.7,0.7-0.7c0.4,0,0.7,0.3,0.7,0.7v2.6
	C50.7,30.1,50.4,30.4,50,30.4z"/>
<path class="st0" d="M39.9,33.1c-0.2,0-0.5-0.1-0.6-0.3L38,30.5c-0.2-0.3-0.1-0.7,0.3-0.9c0.3-0.2,0.7-0.1,0.9,0.2l1.3,2.3
	c0.2,0.3,0.1,0.7-0.2,0.9C40.1,33.1,40,33.1,39.9,33.1z"/>
<path class="st0" d="M32.4,40.5c-0.1,0-0.2,0-0.3-0.1l-2.3-1.3c-0.3-0.2-0.4-0.6-0.2-0.9c0.2-0.3,0.6-0.4,0.9-0.2l2.3,1.3
	c0.3,0.2,0.4,0.6,0.2,0.9C32.9,40.4,32.7,40.5,32.4,40.5z"/>
<path class="st0" d="M29.7,50.7h-2.6c-0.4,0-0.7-0.3-0.7-0.7c0-0.4,0.3-0.7,0.7-0.7h2.6c0.4,0,0.7,0.3,0.7,0.7
	C30.4,50.4,30.1,50.7,29.7,50.7z"/>
<path class="st0" d="M30.2,62.1c-0.4,0-0.7-0.3-0.7-0.7c0-0.2,0.1-0.5,0.3-0.6l2.3-1.3c0.3-0.2,0.7-0.1,0.9,0.2
	c0.2,0.3,0.1,0.7-0.2,0.9c0,0,0,0,0,0L30.5,62C30.4,62.1,30.3,62.1,30.2,62.1z"/>
<path class="st0" d="M38.5,70.5c-0.4,0-0.7-0.3-0.7-0.7c0-0.1,0-0.2,0.1-0.3l1.3-2.3c0.2-0.3,0.6-0.4,0.9-0.3
	c0.3,0.2,0.4,0.6,0.3,0.9c0,0,0,0,0,0l-1.3,2.3C39,70.4,38.8,70.5,38.5,70.5z"/>
<path class="st0" d="M50,73.6c-0.4,0-0.7-0.3-0.7-0.7v-2.6c0-0.4,0.3-0.7,0.7-0.7c0.4,0,0.7,0.3,0.7,0.7v2.6
	C50.7,73.3,50.4,73.6,50,73.6z"/>
<path class="st0" d="M61.5,70.5c-0.2,0-0.5-0.1-0.6-0.3l-1.3-2.3c-0.2-0.3-0.1-0.7,0.2-0.9s0.7-0.1,0.9,0.2l0,0l1.3,2.3
	c0.2,0.3,0.1,0.7-0.2,0.9C61.7,70.5,61.6,70.5,61.5,70.5z"/>
<path class="st0" d="M69.8,62.1c-0.1,0-0.2,0-0.3-0.1l-2.3-1.3c-0.3-0.2-0.4-0.6-0.2-0.9s0.6-0.4,0.9-0.2l2.3,1.3
	c0.3,0.2,0.4,0.6,0.2,0.9C70.3,62,70.1,62.1,69.8,62.1z"/>
<path class="st0" d="M72.9,50.7h-2.6c-0.4,0-0.7-0.3-0.7-0.7c0-0.4,0.3-0.7,0.7-0.7h2.6c0.4,0,0.7,0.3,0.7,0.7
	C73.6,50.4,73.3,50.7,72.9,50.7z"/>
<path class="st0" d="M67.6,40.5c-0.4,0-0.7-0.3-0.7-0.7c0-0.2,0.1-0.5,0.3-0.6l2.3-1.3c0.3-0.2,0.7-0.1,0.9,0.2s0.1,0.7-0.2,0.9
	c0,0,0,0,0,0l-2.3,1.3C67.8,40.5,67.7,40.5,67.6,40.5z"/>
<path class="st0" d="M60.1,33.1c-0.4,0-0.7-0.3-0.7-0.7c0-0.1,0-0.2,0.1-0.3l1.3-2.3c0.2-0.3,0.6-0.4,0.9-0.2
	c0.3,0.2,0.4,0.6,0.2,0.9c0,0,0,0,0,0l-1.3,2.3C60.6,33,60.4,33.1,60.1,33.1z"/>
<path class="st0" d="M60.4,50.7h-8c-0.4,0-0.7-0.3-0.7-0.7c0-0.4,0.3-0.7,0.7-0.7h8c0.4,0,0.7,0.3,0.7,0.7
	C61,50.4,60.7,50.7,60.4,50.7z"/>
<path class="st0" d="M49.4,48.4c-0.3,0-0.6-0.2-0.6-0.5l-4.2-15.3c-0.1-0.4,0.1-0.7,0.5-0.8s0.7,0.1,0.8,0.5L50,47.5
	c0.1,0.4-0.1,0.7-0.5,0.8C49.5,48.4,49.4,48.4,49.4,48.4z"/>
<path class="st0" d="M50,53.1c-1.7,0-3.1-1.4-3.1-3.1c0-1.4,0.9-2.6,2.3-2.9c0.3-0.1,0.5-0.1,0.8-0.1c1.7,0,3.1,1.4,3.1,3.1
	C53.1,51.7,51.7,53.1,50,53.1z M50,48.3c-0.1,0-0.3,0-0.4,0.1c-0.9,0.2-1.5,1.2-1.2,2.1c0.2,0.9,1.2,1.5,2.1,1.2
	c0.9-0.2,1.5-1.2,1.2-2.1C51.5,48.8,50.8,48.3,50,48.3z"/>
</svg>
