<?xml version="1.0" encoding="utf-8"?>
<!-- Generator: Adobe Illustrator 28.1.0, SVG Export Plug-In . SVG Version: 6.00 Build 0)  -->
<svg version="1.1" id="Layer_1" xmlns="http://www.w3.org/2000/svg" xmlns:xlink="http://www.w3.org/1999/xlink" x="0px" y="0px"
	 viewBox="0 0 150 150" style="enable-background:new 0 0 150 150;" xml:space="preserve">
<style type="text/css">
	.st0{fill:#BE1622;}
</style>
<path class="st0" d="M104.8,78.9c-0.4,0-0.8,0-1.1-0.1l-4.3-0.7c-0.5-0.1-0.9-0.6-0.9-1.1c0.1-0.5,0.6-0.9,1.1-0.9c0,0,0,0,0,0
	l4.3,0.7c2.3,0.4,4.5-0.8,4.9-2.5l3.3-15c0.1-0.7,0-1.4-0.4-2c-0.7-1-1.8-1.6-3-1.7l-3.6-0.6c-0.5-0.1-0.9-0.6-0.9-1.1
	s0.6-0.9,1.1-0.9c0,0,0,0,0.1,0l3.6,0.6c1.7,0.2,3.3,1.2,4.3,2.6c0.7,1,1,2.3,0.7,3.5l-3.3,15C110.2,77.2,107.7,78.9,104.8,78.9z"/>
<path class="st0" d="M45.2,78.9c-2.9,0-5.5-1.7-6-4.2l-3.3-15c-0.3-1.2,0-2.5,0.7-3.6c1-1.4,2.6-2.3,4.3-2.6l3.6-0.6
	c0.5-0.1,1.1,0.3,1.2,0.8s-0.3,1.1-0.8,1.2c0,0,0,0,0,0l-3.6,0.6c-1.2,0.1-2.2,0.8-3,1.7c-0.4,0.6-0.6,1.3-0.4,2l3.3,15
	c0.4,1.8,2.6,2.9,4.9,2.5l4.3-0.7c0.5-0.1,1.1,0.3,1.2,0.8c0.1,0.5-0.3,1.1-0.8,1.2c0,0,0,0,0,0l-4.3,0.7
	C46,78.8,45.6,78.9,45.2,78.9z"/>
<path class="st0" d="M39.9,74.3c0,0-0.1,0-0.1,0c-2.6-0.1-4.8-1.9-5.5-4.4l-0.9-4.3c-0.5-2.4,0.8-4.7,3.4-5.9c0.5-0.2,1.1,0,1.3,0.5
	c0.2,0.5,0,1.1-0.5,1.3c-1.5,0.6-2.5,2.1-2.3,3.7l0.9,4.3c0.5,1.7,2.1,2.8,3.8,2.8c0.5,0.1,0.9,0.6,0.9,1.1
	C40.9,73.9,40.4,74.3,39.9,74.3L39.9,74.3z"/>
<path class="st0" d="M112,57.1c-0.6,0-1-0.4-1-1V45.5C111,26.4,95.5,12,75,12S39,26.4,39,45.5v10.5c0,0.6-0.4,1-1,1s-1-0.4-1-1V45.5
	C37,25.3,53.3,10,75,10s38,15.3,38,35.5v10.5C113,56.6,112.5,57.1,112,57.1z"/>
<path class="st0" d="M108,55.4c-0.6,0-1-0.4-1-1v-8.9c0-16.9-13.8-29.6-32-29.6S43,28.7,43,45.6v8.9c0,0.6-0.4,1-1,1s-1-0.4-1-1
	v-8.9c0-18,14.6-31.6,34-31.6s34,13.6,34,31.6v8.9C109,55,108.6,55.4,108,55.4z"/>
<path class="st0" d="M93.7,85.5h-14c-0.6,0-1-0.4-1-1s0.4-1,1-1h14c3.8,0,7.2-2.2,8.9-5.5c0.2-0.5,0.8-0.7,1.3-0.5
	c0.5,0.2,0.7,0.8,0.5,1.3C102.4,82.9,98.2,85.5,93.7,85.5z"/>
<path class="st0" d="M76.2,88.9c-2.5,0-4.5-2-4.5-4.5c0-2.5,2-4.5,4.5-4.5c2.5,0,4.5,2,4.5,4.5c0,0,0,0,0,0
	C80.7,86.9,78.7,88.9,76.2,88.9z M76.2,82c-1.4,0-2.5,1.1-2.5,2.5c0,1.4,1.1,2.5,2.5,2.5c1.4,0,2.5-1.1,2.5-2.5c0,0,0,0,0,0
	C78.7,83.1,77.6,82,76.2,82z"/>
<path class="st0" d="M75,95.6c-17.5,0-31.3-19.2-31.3-43.7c0-14.5,13.4-30.7,31.3-30.7s31.3,16.2,31.3,30.7
	C106.3,76.4,92.5,95.6,75,95.6z M75,23.1c-16.8,0-29.3,15.2-29.3,28.7c0,23.4,12.9,41.7,29.3,41.7s29.3-18.3,29.3-41.7
	C104.3,38.3,91.8,23.1,75,23.1z"/>
<path class="st0" d="M98.3,53.5c-10.9,0-21.4-4.6-26.5-12.1C65.5,46,54.7,53.6,44.7,48c-0.5-0.3-0.7-0.9-0.4-1.4s0.9-0.7,1.4-0.4
	c9.3,5.2,20-2.8,25.8-7.1c0.4-0.3,1.1-0.2,1.4,0.2c0,0,0,0.1,0.1,0.1c5.5,9,19.3,14,32.2,11.4c0.5-0.1,1.1,0.3,1.2,0.8
	c0.1,0.5-0.3,1-0.8,1.1C103.1,53.3,100.7,53.5,98.3,53.5z"/>
<path class="st0" d="M126.4,140H23.6c-0.6,0-1-0.4-1-1v-18.1c0-13.6,10.2-24.7,22.7-24.7h1.9c5.1,0,9.9-2.9,12.1-7.5
	c0.2-0.5,0.8-0.7,1.3-0.5s0.7,0.8,0.5,1.3l0,0c-2.6,5.3-8,8.6-13.9,8.6h-1.9c-11.4,0-20.7,10.2-20.7,22.7V138h100.8v-17.1
	c0-12.5-9.3-22.7-20.7-22.7h-1.9c-5.9,0-11.3-3.3-13.9-8.6c-0.2-0.5,0-1.1,0.5-1.3s1.1,0,1.3,0.5l0,0c2.3,4.6,7,7.5,12.1,7.5h1.9
	c12.5,0,22.7,11.1,22.7,24.7V139C127.4,139.5,126.9,140,126.4,140L126.4,140z"/>
<path class="st0" d="M42.8,140c-0.6,0-1-0.4-1-1v-17.8c0-0.6,0.4-1,1-1s1,0.4,1,1V139C43.8,139.6,43.3,140,42.8,140z"/>
<path class="st0" d="M107.2,140c-0.6,0-1-0.4-1-1v-17.8c0-0.6,0.4-1,1-1s1,0.4,1,1V139C108.2,139.6,107.8,140,107.2,140z"/>
<path class="st0" d="M64.5,114c-0.3,0-0.6-0.1-0.8-0.4L50.2,97.4c-0.3-0.4-0.3-1.1,0.2-1.4c0.4-0.3,1-0.3,1.4,0.1l13,15.6l8.5-5.7
	L56,94.7c-0.5-0.3-0.6-0.9-0.3-1.4c0.3-0.5,0.9-0.6,1.4-0.3l18.5,12.1c0.5,0.3,0.6,0.9,0.3,1.4c-0.1,0.1-0.2,0.2-0.3,0.3l-10.5,7
	C64.9,113.9,64.7,114,64.5,114L64.5,114z"/>
<path class="st0" d="M85.5,114c-0.2,0-0.4-0.1-0.6-0.2l-10.5-7c-0.5-0.3-0.6-0.9-0.3-1.4c0.1-0.1,0.2-0.2,0.3-0.3L92.9,93
	c0.5-0.3,1.1-0.2,1.4,0.3c0.3,0.5,0.2,1.1-0.3,1.4L76.8,106l8.5,5.7l13-15.6c0.3-0.4,1-0.5,1.4-0.2c0.4,0.3,0.5,1,0.2,1.4
	c0,0,0,0,0,0l-13.5,16.3C86.1,113.9,85.8,114,85.5,114z"/>
<path class="st0" d="M110.1,74.3c-0.6,0-1-0.5-1-1c0-0.5,0.4-0.9,0.9-1c1.7-0.1,3.3-1.2,3.8-2.8l0.9-4.3c0.2-1.6-0.7-3.1-2.3-3.7
	c-0.5-0.2-0.7-0.8-0.5-1.3c0.2-0.5,0.8-0.7,1.3-0.5c2.5,1.2,3.9,3.6,3.4,5.9l-0.9,4.3c-0.7,2.5-2.9,4.3-5.5,4.4
	C110.2,74.3,110.1,74.3,110.1,74.3z"/>
</svg>
