<?xml version="1.0" encoding="utf-8"?>
<!-- Generator: Adobe Illustrator 28.1.0, SVG Export Plug-In . SVG Version: 6.00 Build 0)  -->
<svg version="1.1" id="Layer_1" xmlns="http://www.w3.org/2000/svg" xmlns:xlink="http://www.w3.org/1999/xlink" x="0px" y="0px"
	 viewBox="0 0 150 150" style="enable-background:new 0 0 150 150;" xml:space="preserve">
<style type="text/css">
	.st0{fill:#BE1622;}
</style>
<path class="st0" d="M47.7,46.8c-0.1,0-0.1,0-0.2,0c-0.5-0.1-0.8-0.5-0.8-1c0-2.7-0.7-5.4-2-7.7c-5.8,2.4-11.7,1.6-17.4-2.5
	c-2,1.7-4.1,5.9-4.4,10.4c0,0.6-0.5,1-1.1,0.9c-0.4,0-0.8-0.3-0.9-0.7c-3-11.5-1-19.2,5.6-21.6c6.1-3.9,11.9-3.9,17.2-0.1
	c1.1,0.8,2.5,1.3,3.9,1.3c1.1-0.1,2.2,0.3,3.1,1.1c0.5,0.5,0.6,1.3,0.5,1.9c-0.1,1.1-0.5,2.1-1.1,3.1c-0.4,0.6-0.4,0.7-0.3,1.1
	c0.6,1.7,0.7,7.6-1.2,13.3C48.5,46.6,48.1,46.8,47.7,46.8z M35.4,23.6c-2.9,0.1-5.6,1-8,2.7c-0.1,0-0.1,0.1-0.2,0.1
	c-5.8,2-6.2,8.8-5.4,14.5c1.1-3.2,2.9-6.1,4.9-7.4c0.4-0.2,0.8-0.2,1.2,0c5.6,4.2,11.1,5,16.8,2.3c0.5-0.2,1,0,1.3,0.4
	c0.8,1.4,1.4,2.8,1.9,4.4c0.4-2.3,0.4-4.7,0-7.1c-0.3-0.9-0.2-2,0.5-2.8c0.5-0.7,0.8-1.5,0.9-2.3c0-0.3,0-0.3-0.1-0.4
	c0-0.1-0.4-0.4-1.6-0.4c-1.8,0-3.6-0.6-5.1-1.7C40.5,24.5,38,23.6,35.4,23.6z"/>
<path class="st0" d="M53.9,103.8H50c-0.6,0-1-0.4-1-1s0.4-1,1-1h3.8c1.8,0,3.3-1.5,3.3-3.3V72.9c0-5.4-4.4-9.8-9.8-9.8h-3.3
	c-5.7,3.7-13,3.7-18.6,0h-3.3c-5.4,0-9.8,4.4-9.8,9.8v25.6c0,1.8,1.5,3.3,3.3,3.3h3.8c0.6,0,1,0.4,1,1s-0.4,1-1,1h-3.8
	c-2.9,0-5.3-2.4-5.3-5.3V72.9c0-6.5,5.3-11.8,11.8-11.8h3.6c0.2,0,0.4,0.1,0.6,0.2c2.5,1.7,5.4,2.6,8.5,2.6c3,0,6-0.9,8.5-2.6
	c0.2-0.1,0.4-0.2,0.6-0.2h3.6c6.5,0,11.8,5.3,11.8,11.8v25.6C59.2,101.5,56.8,103.8,53.9,103.8z"/>
<path class="st0" d="M34.8,61c-6.6,0-12.3-6.2-13.9-15c-0.1-0.5,0.3-1.1,0.8-1.2s1.1,0.3,1.2,0.8c0,0,0,0,0,0
	C24.2,53.5,29.1,59,34.8,59s10.6-5.5,11.9-13.4c0.1-0.5,0.6-0.9,1.1-0.9s0.9,0.6,0.9,1.1c0,0,0,0,0,0.1C47.1,54.9,41.4,61,34.8,61z"
	/>
<path class="st0" d="M27.1,140.1c-4.8,0-8.6-3.9-8.6-8.6l0-56.8c0-0.6,0.4-1,1-1s1,0.4,1,1l0,56.8c0,3.7,3,6.6,6.6,6.6h0
	c3.7,0,6.6-3,6.6-6.7l0-28.6c0-0.6,0.4-1,1-1s1,0.4,1,1l0,28.6C35.8,136.2,31.9,140.1,27.1,140.1L27.1,140.1z"/>
<path class="st0" d="M42.4,140.1c-4.8,0-8.6-3.9-8.6-8.6l-0.1-28.6c0-0.6,0.4-1,1-1s1,0.4,1,1l0,28.6c0,3.7,3,6.6,6.6,6.6h0
	c3.7,0,6.6-3,6.6-6.7l0-56.7c0-0.6,0.4-1,1-1s1,0.4,1,1l0,56.7C51,136.2,47.2,140.1,42.4,140.1L42.4,140.1z"/>
<path class="st0" d="M25.7,63.1c-0.6,0-1-0.4-1-1c0-0.2,0.1-0.5,0.2-0.7l3.4-3.9c0.4-0.4,1-0.5,1.4-0.1c0.4,0.4,0.5,1,0.1,1.4l0,0
	l-3.4,3.9C26.3,63,26,63.1,25.7,63.1z"/>
<path class="st0" d="M43.8,63.1c-0.3,0-0.6-0.1-0.8-0.3l-3.4-3.9c-0.4-0.4-0.3-1,0.1-1.4s1-0.3,1.4,0.1l3.4,3.9
	c0.4,0.4,0.3,1-0.1,1.4C44.3,63,44.1,63.1,43.8,63.1z"/>
<path class="st0" d="M138.7,80.7H58.2c-0.6,0-1-0.4-1-1s0.4-1,1-1h79.5V11.9h-97v11.5c0,0.6-0.4,1-1,1s-1-0.4-1-1V10.9
	c0-0.6,0.4-1,1-1h99c0.6,0,1,0.4,1,1v68.8C139.7,80.3,139.3,80.7,138.7,80.7z"/>
<path class="st0" d="M133.7,75.7H58.2c-0.6,0-1-0.4-1-1s0.4-1,1-1h74.5V16.9h-87v9.3c0,0.6-0.4,1-1,1s-1-0.4-1-1V15.9
	c0-0.6,0.4-1,1-1h89c0.6,0,1,0.4,1,1v58.8C134.7,75.3,134.3,75.7,133.7,75.7z"/>
<path class="st0" d="M113.2,86.6h-48c-0.6,0-1-0.4-1-1v-5.9c0-0.6,0.4-1,1-1h48c0.6,0,1,0.4,1,1v5.9
	C114.2,86.1,113.8,86.6,113.2,86.6z M66.2,84.6h46v-3.9h-46V84.6z"/>
<path class="st0" d="M67.9,112.2h-6.5c-0.6,0-1-0.4-1-1c0-0.2,0-0.3,0.1-0.5l13.6-25.6c0.2-0.3,0.5-0.5,0.9-0.5h6.5c0.6,0,1,0.4,1,1
	c0,0.2,0,0.3-0.1,0.5l-13.6,25.6C68.6,112,68.3,112.2,67.9,112.2z M63.1,110.2h4.2l12.6-23.6h-4.2L63.1,110.2z"/>
<path class="st0" d="M117,112.2h-6.5c-0.4,0-0.7-0.2-0.9-0.5L96,86.1c-0.3-0.5-0.1-1.1,0.4-1.4c0.1-0.1,0.3-0.1,0.5-0.1h6.5
	c0.4,0,0.7,0.2,0.9,0.5l13.6,25.6c0.3,0.5,0.1,1.1-0.4,1.4C117.3,112.1,117.2,112.2,117,112.2z M111.1,110.2h4.2l-12.6-23.6h-4.2
	L111.1,110.2z"/>
<path class="st0" d="M92,112.2h-5.6c-0.6,0-1-0.4-1-1V85.6c0-0.6,0.4-1,1-1H92c0.6,0,1,0.4,1,1v25.6C93,111.7,92.6,112.2,92,112.2z
	 M87.4,110.2H91V86.6h-3.6V110.2z"/>
<path class="st0" d="M126.8,45.3H105c-0.6,0-1-0.4-1-1V25.9c0-0.6,0.4-1,1-1h21.9c0.6,0,1,0.4,1,1v18.4
	C127.8,44.8,127.4,45.3,126.8,45.3z M106,43.3h19.9V26.9H106V43.3z"/>
<path class="st0" d="M97.3,27H58.2c-0.6,0-1-0.4-1-1s0.4-1,1-1h39.1c0.6,0,1,0.4,1,1S97.8,27,97.3,27z"/>
<path class="st0" d="M97.3,36.7H58.2c-0.6,0-1-0.4-1-1s0.4-1,1-1h39.1c0.6,0,1,0.4,1,1S97.8,36.7,97.3,36.7z"/>
<path class="st0" d="M97.3,46.4H58.2c-0.6,0-1-0.4-1-1s0.4-1,1-1h39.1c0.6,0,1,0.4,1,1S97.8,46.4,97.3,46.4z"/>
<path class="st0" d="M126.8,56.1H58.2c-0.6,0-1-0.4-1-1s0.4-1,1-1h68.7c0.6,0,1,0.4,1,1S127.4,56.1,126.8,56.1z"/>
<path class="st0" d="M126.8,65.7H58.2c-0.6,0-1-0.4-1-1s0.4-1,1-1h68.7c0.6,0,1,0.4,1,1S127.4,65.7,126.8,65.7z"/>
<path class="st0" d="M100.5,128.8c-4.2,0-7.6-3.4-7.6-7.6c0-4.2,3.4-7.6,7.6-7.6c4.2,0,7.6,3.4,7.6,7.6c0,2.2-0.9,4.2-2.5,5.7
	C104.2,128.1,102.4,128.8,100.5,128.8z M100.5,115.6c-3.1,0-5.6,2.5-5.6,5.6c0,3.1,2.5,5.6,5.6,5.6c3.1,0,5.6-2.5,5.6-5.6
	C106.1,118.1,103.6,115.6,100.5,115.6z"/>
<path class="st0" d="M113.9,140.1H87.2c-0.5,0-0.9-0.4-1-0.9c0-0.2,0-0.3,0-0.5c0-6.1,3.9-11.5,9.6-13.6c0.3-0.1,0.7,0,1,0.2
	c2.1,1.9,5.4,1.9,7.5,0c0.3-0.3,0.7-0.3,1-0.2c5.8,2,9.6,7.5,9.6,13.6c0,0.1,0,0.2,0,0.2l0,0.1C114.9,139.6,114.5,140.1,113.9,140.1
	C113.9,140.1,113.9,140.1,113.9,140.1L113.9,140.1z M88.2,138.1h24.7c-0.2-4.8-3.3-9.1-7.7-10.9c-2.7,2.1-6.5,2.1-9.3,0
	C91.4,129,88.4,133.3,88.2,138.1L88.2,138.1z"/>
<path class="st0" d="M81.5,127.4c-3.5,0-6.4-2.9-6.4-6.4c0-3.5,2.9-6.4,6.4-6.4c3.5,0,6.4,2.9,6.4,6.4c0,1.8-0.8,3.5-2.1,4.8
	C84.6,126.8,83.1,127.4,81.5,127.4z M81.5,116.6c-2.4,0-4.4,2-4.4,4.4c0,1.2,0.5,2.4,1.4,3.2c1.7,1.5,4.2,1.5,5.9,0
	c1.8-1.6,1.9-4.4,0.3-6.2C84,117.1,82.8,116.6,81.5,116.6L81.5,116.6z"/>
<path class="st0" d="M87.5,140.1H74.3c-2.6,0-4.8-2.1-4.8-4.8c0-5.1,3.2-9.6,8-11.3c0.3-0.1,0.7,0,1,0.2c1.7,1.5,4.2,1.5,5.9,0
	c0.3-0.3,0.7-0.3,1-0.2c2.6,0.9,4.7,2.6,6.2,4.9c0.3,0.5,0.2,1.1-0.3,1.4s-1.1,0.2-1.4-0.3c0,0,0,0,0,0c-1.1-1.7-2.7-3.1-4.6-3.9
	c-2.3,1.6-5.4,1.6-7.6,0c-3.7,1.5-6.1,5.2-6.1,9.2c0,1.5,1.3,2.8,2.8,2.8h13.1c0.6,0,1,0.4,1,1S88,140.1,87.5,140.1L87.5,140.1z"/>
<path class="st0" d="M119.5,127.4c-3.5,0-6.4-2.9-6.4-6.4c0.1-3.5,3.1-6.3,6.6-6.2c3.4,0.1,6.1,2.8,6.2,6.2
	C125.9,124.5,123.1,127.4,119.5,127.4L119.5,127.4z M119.5,116.6c-2.4,0-4.4,2-4.4,4.4c0,1.2,0.5,2.4,1.4,3.2c1.7,1.5,4.2,1.5,5.9,0
	c0.9-0.8,1.4-2,1.4-3.2C123.9,118.6,122,116.6,119.5,116.6z"/>
<path class="st0" d="M126.7,140.1h-13.1c-0.6,0-1-0.4-1-1s0.4-1,1-1h13.1c1.5,0,2.8-1.2,2.8-2.8c0-4-2.4-7.7-6.1-9.2
	c-2.3,1.6-5.4,1.6-7.6,0c-1.9,0.8-3.5,2.2-4.6,3.9c-0.3,0.5-0.9,0.6-1.4,0.3c-0.5-0.3-0.6-0.9-0.3-1.4c1.4-2.3,3.6-4,6.2-4.9
	c0.4-0.1,0.7,0,1,0.2c1.7,1.5,4.2,1.5,5.9,0c0.3-0.2,0.7-0.3,1-0.2c4.8,1.7,8,6.2,8,11.3C131.5,138,129.3,140.1,126.7,140.1
	L126.7,140.1z"/>
</svg>
