<?xml version="1.0" encoding="utf-8"?>
<!-- Generator: Adobe Illustrator 28.1.0, SVG Export Plug-In . SVG Version: 6.00 Build 0)  -->
<svg version="1.1" id="Layer_1" xmlns="http://www.w3.org/2000/svg" xmlns:xlink="http://www.w3.org/1999/xlink" x="0px" y="0px"
	 viewBox="0 0 150 150" style="enable-background:new 0 0 150 150;" xml:space="preserve">
<style type="text/css">
	.st0{fill:#BE1622;}
</style>
<path class="st0" d="M82.3,140H67.7c-0.5,0-0.9-0.3-1-0.8l-2.8-14.9c-3-0.7-6-1.7-8.9-2.9l-11.1,10.4c-0.3,0.3-0.9,0.4-1.3,0.1
	l-11.7-8.5c-0.4-0.3-0.5-0.8-0.3-1.2l6.5-13.8c-2.1-2.3-3.9-4.9-5.5-7.6l-15.1,1.9c-0.5,0.1-0.9-0.2-1.1-0.7l-4.5-13.8
	c-0.1-0.5,0.1-1,0.5-1.2l13.3-7.3c-0.1-1.6-0.2-3.1-0.2-4.7s0.1-3.1,0.2-4.7L11.4,63c-0.4-0.2-0.6-0.7-0.5-1.2L15.4,48
	c0.1-0.5,0.6-0.7,1.1-0.7l15.1,1.9c1.6-2.7,3.4-5.2,5.5-7.6l-6.5-13.8c-0.2-0.4-0.1-1,0.3-1.2l11.7-8.5c0.4-0.3,0.9-0.2,1.3,0.1
	L55,28.6c2.9-1.2,5.8-2.2,8.9-2.9l2.8-14.9c0.1-0.5,0.5-0.8,1-0.8h14.5c0.5,0,0.9,0.3,1,0.8l2.8,14.9c3,0.7,6,1.7,8.9,2.9l11.1-10.4
	c0.3-0.3,0.9-0.4,1.3-0.1l11.7,8.5c0.4,0.3,0.5,0.8,0.3,1.2l-6.5,13.8c2.1,2.3,3.9,4.9,5.5,7.6l15.1-1.9c0.5-0.1,0.9,0.2,1.1,0.7
	l4.5,13.8c0.1,0.5,0,1-0.5,1.2l-13.3,7.3c0.1,1.6,0.2,3.1,0.2,4.7s-0.1,3.1-0.2,4.7l13.3,7.3c0.4,0.2,0.6,0.7,0.5,1.2l-4.5,13.8
	c-0.1,0.5-0.6,0.7-1.1,0.7l-15.1-1.9c-1.6,2.7-3.4,5.2-5.5,7.6l6.5,13.8c0.2,0.4,0.1,1-0.3,1.2l-11.7,8.5c-0.4,0.3-0.9,0.2-1.3-0.1
	L95,121.4c-2.9,1.2-5.8,2.2-8.9,2.9l-2.8,14.9C83.2,139.7,82.7,140,82.3,140z M68.6,138h12.9l2.8-14.8c0.1-0.4,0.4-0.7,0.8-0.8
	c3.4-0.7,6.6-1.8,9.7-3.2c0.4-0.2,0.8-0.1,1.1,0.2l11,10.3l10.4-7.6l-6.4-13.6c-0.2-0.4-0.1-0.8,0.2-1.1c2.3-2.5,4.3-5.3,6-8.3
	c0.2-0.3,0.6-0.5,1-0.5l14.9,1.9l4-12.2l-13.2-7.2c-0.4-0.2-0.6-0.6-0.5-1c0.4-3.4,0.4-6.8,0-10.3c0-0.4,0.2-0.8,0.5-1l13.2-7.2
	l-4-12.2L118,51.3c-0.4,0.1-0.8-0.1-1-0.5c-1.7-3-3.7-5.7-6-8.3c-0.3-0.3-0.3-0.7-0.2-1.1l6.4-13.6l-10.4-7.6l-11,10.3
	c-0.3,0.3-0.7,0.3-1.1,0.2c-3.1-1.4-6.4-2.5-9.7-3.2c-0.4-0.1-0.7-0.4-0.8-0.8L81.4,12H68.6l-2.8,14.8c-0.1,0.4-0.4,0.7-0.8,0.8
	c-3.4,0.7-6.6,1.8-9.7,3.2c-0.4,0.2-0.8,0.1-1.1-0.2l-11-10.3l-10.4,7.6l6.4,13.6c0.2,0.4,0.1,0.8-0.2,1.1c-2.3,2.5-4.3,5.3-6,8.3
	c-0.2,0.3-0.6,0.5-1,0.5l-14.9-1.9l-4,12.2l13.2,7.2c0.4,0.2,0.6,0.6,0.5,1c-0.4,3.4-0.4,6.8,0,10.2c0,0.4-0.2,0.8-0.5,1l-13.2,7.2
	l4,12.2L32,98.7c0.4-0.1,0.8,0.1,1,0.5c1.7,3,3.7,5.7,6,8.3c0.3,0.3,0.3,0.7,0.2,1.1l-6.4,13.6l10.4,7.6l11-10.3
	c0.3-0.3,0.7-0.3,1.1-0.2c3.1,1.4,6.4,2.5,9.7,3.2c0.4,0.1,0.7,0.4,0.8,0.8L68.6,138z"/>
<path class="st0" d="M75,116.3c-22.8,0-41.3-18.5-41.3-41.3S52.2,33.7,75,33.7s41.3,18.5,41.3,41.3C116.3,97.8,97.8,116.3,75,116.3z
	 M75,35.7c-21.7,0-39.3,17.6-39.3,39.3s17.6,39.3,39.3,39.3s39.3-17.6,39.3-39.3l0,0C114.3,53.3,96.7,35.7,75,35.7z"/>
<path class="st0" d="M75,45.6c-0.6,0-1-0.4-1-1v-3.9c0-0.6,0.4-1,1-1s1,0.4,1,1v3.9C76,45.1,75.6,45.6,75,45.6z"/>
<path class="st0" d="M59.8,49.7c-0.4,0-0.7-0.2-0.9-0.5l-2-3.4c-0.3-0.5-0.1-1.1,0.4-1.4c0.5-0.3,1.1-0.1,1.4,0.4l2,3.4
	c0.3,0.5,0.1,1.1-0.4,1.4C60.1,49.6,60,49.7,59.8,49.7z"/>
<path class="st0" d="M48.7,60.8c-0.2,0-0.3,0-0.5-0.1l-3.4-2c-0.5-0.3-0.6-0.9-0.4-1.4c0.3-0.5,0.9-0.6,1.4-0.4l3.4,2
	c0.5,0.3,0.6,0.9,0.4,1.4C49.3,60.6,49,60.8,48.7,60.8z"/>
<path class="st0" d="M44.6,76h-3.9c-0.6,0-1-0.4-1-1s0.4-1,1-1h3.9c0.6,0,1,0.4,1,1S45.1,76,44.6,76z"/>
<path class="st0" d="M45.3,93.2c-0.6,0-1-0.4-1-1c0-0.4,0.2-0.7,0.5-0.9l3.4-2c0.5-0.3,1.1-0.1,1.4,0.4c0.3,0.5,0.1,1.1-0.4,1.4
	c0,0,0,0,0,0l-3.4,2C45.6,93.1,45.4,93.2,45.3,93.2z"/>
<path class="st0" d="M57.8,105.8c-0.6,0-1-0.4-1-1c0-0.2,0-0.3,0.1-0.5l2-3.4c0.3-0.5,0.9-0.6,1.4-0.4c0.5,0.3,0.6,0.9,0.4,1.4
	c0,0,0,0,0,0l-2,3.4C58.5,105.6,58.2,105.8,57.8,105.8z"/>
<path class="st0" d="M75,110.4c-0.6,0-1-0.4-1-1v-3.9c0-0.6,0.4-1,1-1s1,0.4,1,1v3.9C76,109.9,75.6,110.4,75,110.4z"/>
<path class="st0" d="M92.2,105.8c-0.4,0-0.7-0.2-0.9-0.5l-2-3.4c-0.3-0.5-0.1-1.1,0.4-1.4s1.1-0.1,1.4,0.4l0,0l2,3.4
	c0.3,0.5,0.1,1.1-0.4,1.4C92.5,105.7,92.4,105.7,92.2,105.8z"/>
<path class="st0" d="M104.7,93.2c-0.2,0-0.3,0-0.5-0.1l-3.4-2c-0.5-0.3-0.6-0.9-0.4-1.4s0.9-0.6,1.4-0.4l3.4,2
	c0.5,0.3,0.6,0.9,0.4,1.4C105.4,93,105.1,93.2,104.7,93.2z"/>
<path class="st0" d="M109.4,76h-3.9c-0.6,0-1-0.4-1-1s0.4-1,1-1h3.9c0.6,0,1,0.4,1,1S109.9,76,109.4,76z"/>
<path class="st0" d="M101.3,60.8c-0.6,0-1-0.4-1-1c0-0.4,0.2-0.7,0.5-0.9l3.4-2c0.5-0.3,1.1-0.1,1.4,0.4c0.3,0.5,0.1,1.1-0.4,1.4
	c0,0,0,0,0,0l-3.4,2C101.7,60.7,101.5,60.8,101.3,60.8z"/>
<path class="st0" d="M90.2,49.7c-0.6,0-1-0.4-1-1c0-0.2,0-0.3,0.1-0.5l2-3.4c0.3-0.5,0.9-0.6,1.4-0.4c0.5,0.3,0.6,0.9,0.4,1.4
	c0,0,0,0,0,0l-2,3.4C90.9,49.5,90.6,49.7,90.2,49.7z"/>
<path class="st0" d="M90.6,76h-12c-0.6,0-1-0.4-1-1s0.4-1,1-1h12c0.6,0,1,0.4,1,1S91.1,76,90.6,76z"/>
<path class="st0" d="M74.1,72.5c-0.5,0-0.8-0.3-1-0.7l-6.2-22.9c-0.1-0.5,0.2-1.1,0.7-1.2s1.1,0.2,1.2,0.7L75,71.3
	c0.1,0.5-0.2,1.1-0.7,1.2C74.2,72.5,74.1,72.5,74.1,72.5z"/>
<path class="st0" d="M75,79.6c-2.5,0-4.6-2.1-4.6-4.6c0-2.1,1.4-3.9,3.4-4.4c0.4-0.1,0.8-0.2,1.2-0.2c2.5,0,4.6,2.1,4.6,4.6
	C79.6,77.5,77.5,79.6,75,79.6z M75,72.4c-0.2,0-0.4,0-0.6,0.1c-1.4,0.4-2.2,1.8-1.8,3.1c0.4,1.4,1.8,2.2,3.1,1.8
	c1.4-0.4,2.2-1.8,1.8-3.1C77.2,73.2,76.2,72.4,75,72.4z"/>
</svg>
