<?xml version="1.0" encoding="utf-8"?>
<!-- Generator: Adobe Illustrator 28.1.0, SVG Export Plug-In . SVG Version: 6.00 Build 0)  -->
<svg version="1.1" id="Layer_1" xmlns="http://www.w3.org/2000/svg" xmlns:xlink="http://www.w3.org/1999/xlink" x="0px" y="0px"
	 viewBox="0 0 150 150" style="enable-background:new 0 0 150 150;" xml:space="preserve">
<style type="text/css">
	.st0{fill:#BE1622;}
</style>
<path class="st0" d="M115.3,34.2H93.1c-0.6,0-1-0.4-1-1V11c0-0.6,0.4-1,1-1c0.3,0,0.5,0.1,0.7,0.3L116,32.5c0.4,0.4,0.4,1,0,1.4
	C115.8,34.1,115.6,34.2,115.3,34.2z M94.1,32.2h18.8L94.1,13.4V32.2z"/>
<path class="st0" d="M115.3,140H13.1c-0.6,0-1-0.4-1-1V11c0-0.6,0.4-1,1-1h80c0.3,0,0.5,0.1,0.7,0.3L116,32.5
	c0.2,0.2,0.3,0.4,0.3,0.7V139C116.3,139.6,115.9,140,115.3,140z M14.1,138h100.2V33.7L92.6,12H14.1V138z"/>
<path class="st0" d="M58.1,22.2H21.8c-0.6,0-1-0.4-1-1s0.4-1,1-1h36.3c0.6,0,1,0.4,1,1S58.7,22.2,58.1,22.2z"/>
<path class="st0" d="M58.1,32.5H21.8c-0.6,0-1-0.4-1-1s0.4-1,1-1h36.3c0.6,0,1,0.4,1,1S58.7,32.5,58.1,32.5z"/>
<path class="st0" d="M107.3,49.4H21.1c-0.6,0-1-0.4-1-1s0.4-1,1-1h86.2c0.6,0,1,0.4,1,1S107.9,49.4,107.3,49.4z"/>
<path class="st0" d="M107.3,61H21.1c-0.6,0-1-0.4-1-1s0.4-1,1-1h86.2c0.6,0,1,0.4,1,1S107.9,61,107.3,61z"/>
<path class="st0" d="M107.3,72.6H21.1c-0.6,0-1-0.4-1-1s0.4-1,1-1h86.2c0.6,0,1,0.4,1,1S107.9,72.6,107.3,72.6z"/>
<path class="st0" d="M64.2,127.5c-12.7,0-23-10.3-23-23s10.3-23,23-23s23,10.3,23,23C87.2,117.2,76.9,127.5,64.2,127.5z M64.2,83.5
	c-11.6,0-21,9.4-21,21s9.4,21,21,21s21-9.4,21-21C85.2,92.9,75.8,83.5,64.2,83.5z"/>
<path class="st0" d="M64.2,122.3c-10,0-18-8.1-18.1-18c0-10,8.1-18.1,18-18.1s18.1,8.1,18.1,18v0C82.2,114.2,74.1,122.3,64.2,122.3z
	 M64.2,88.2c-8.9,0-16.1,7.2-16.1,16.1s7.2,16,16,16s16.1-7.2,16.1-16l0,0C80.2,95.4,73,88.2,64.2,88.2z"/>
<path class="st0" d="M59.7,111.8c-0.3,0-0.5-0.1-0.7-0.3l-3.9-3.9c-0.4-0.4-0.4-1,0-1.4c0.4-0.4,1-0.4,1.4,0c0,0,0,0,0,0l3.1,3.1
	l12.2-12.2c0.4-0.4,1-0.4,1.4,0c0.4,0.4,0.4,1,0,1.4l-12.9,12.9C60.2,111.7,59.9,111.8,59.7,111.8z"/>
<path class="st0" d="M136.9,126.1c-0.6,0-1-0.4-1-1V59.6h-12.2v65.4c0,0.6-0.4,1-1,1s-1-0.4-1-1V58.6c0-0.6,0.4-1,1-1h14.2
	c0.6,0,1,0.4,1,1v66.4C137.9,125.6,137.5,126.1,136.9,126.1z"/>
<path class="st0" d="M136.9,59.6c-0.6,0-1-0.4-1-1v-9.8c0-1.8-1.4-3.2-3.2-3.2H127c-1.8,0-3.2,1.4-3.2,3.2v9.8c0,0.6-0.4,1-1,1
	s-1-0.4-1-1v-9.8c0-2.9,2.3-5.2,5.2-5.2h5.8c2.9,0,5.2,2.3,5.2,5.2v9.8C137.9,59.2,137.5,59.6,136.9,59.6
	C136.9,59.6,136.9,59.6,136.9,59.6L136.9,59.6z"/>
<path class="st0" d="M129.9,139.9c-0.4,0-0.7-0.2-0.9-0.5l-7.1-13.9c-0.2-0.5-0.1-1.1,0.4-1.3c4.7-2.6,10.4-2.6,15.1,0
	c0.5,0.3,0.7,0.9,0.4,1.3l-7.1,13.9C130.6,139.7,130.2,139.9,129.9,139.9L129.9,139.9z M124.1,125.5l5.7,11.2l5.7-11.2
	C132,123.7,127.7,123.7,124.1,125.5z"/>
<path class="st0" d="M129.9,124.2c-0.6,0-1-0.4-1-1V58.6c0-0.6,0.4-1,1-1s1,0.4,1,1v64.6C130.9,123.7,130.4,124.2,129.9,124.2z"/>
</svg>
