<?xml version="1.0" encoding="utf-8"?>
<!-- Generator: Adobe Illustrator 28.1.0, SVG Export Plug-In . SVG Version: 6.00 Build 0)  -->
<svg version="1.1" id="Layer_1" xmlns="http://www.w3.org/2000/svg" xmlns:xlink="http://www.w3.org/1999/xlink" x="0px" y="0px"
	 viewBox="0 0 150 150" style="enable-background:new 0 0 150 150;" xml:space="preserve">
<style type="text/css">
	.st0{fill:#BE1622;}
</style>
<path class="st0" d="M93.8,140H31.4c-0.6,0-1-0.4-1-1c0-0.2,0.1-0.4,0.2-0.5c4.5-6.9,6.9-15,6.8-23.3c1-10.3-2.6-19.9-11.8-31.3
	c-5.7-6.9-9.1-15.4-9.8-24.3c-0.8-11.8,2.4-21.8,9.6-30.7C32.8,20,43.1,14,54.4,11.7c23.7-5,44.3,1.3,56.7,17.2
	c8.8,11,12.4,21,11.2,30.4c-0.5,4.2,0.6,8.4,3,11.8c5.8,8.4,8.8,13.9,9,16.3c0.1,1.1-0.3,2.2-1,3c-1.8,2-5.7,2.6-7.9,2.7
	c0.7,1.5,1.2,3.1,1.4,4.8c0,1.5-1.3,2.5-2.5,3c0.3,0.4,0.5,0.8,0.7,1.3c0.5,1.4,0.1,2.9-1.1,3.8c-0.6,0.5-1.1,1-1.5,1.6
	c-0.3,0.4-0.3,0.9,0,1.3c1.2,1.8,2.2,5.3,0.7,12c-0.4,1.8-1.6,3.4-3.2,4.2c-6,3.5-18.5,0.6-22.2-0.4l-2.8,14.4
	C94.7,139.7,94.3,140,93.8,140L93.8,140z M33.2,138H93l2.9-14.7c0.1-0.5,0.6-0.9,1.2-0.8c0,0,0.1,0,0.1,0c0.2,0,15.5,4.5,21.7,0.9
	c1.1-0.6,2-1.7,2.3-3c1.4-6.3,0.4-9.2-0.4-10.4c-0.7-1.1-0.7-2.4,0-3.5c0.5-0.8,1.2-1.5,2-2.1c0.4-0.4,0.6-1.1,0.4-1.6
	c-0.1-0.6-0.6-1-1.2-1.1c-0.6,0-1-0.5-1-1c0-0.5,0.3-0.8,0.8-0.9c1.3-0.3,3.2-1.1,3.2-1.8c0-1.4-1.3-4.3-1.8-5.3
	c-0.3-0.5-0.1-1.1,0.4-1.3c0.1-0.1,0.3-0.1,0.5-0.1c1.7,0,6.4-0.4,8-2.1c0.4-0.4,0.6-0.9,0.5-1.4c-0.1-0.9-1.1-4.3-8.7-15.4
	c-2.7-3.8-3.9-8.5-3.3-13.2c1.1-8.9-2.4-18.3-10.8-28.9C97.7,14.8,77.7,8.8,54.8,13.6c-10.9,2.2-20.8,8-27.9,16.5
	C20,38.6,17,48.2,17.7,59.4c0.7,8.5,3.9,16.6,9.3,23.2c9.5,11.9,13.3,21.9,12.2,32.7C39.3,123.3,37.2,131.1,33.2,138L33.2,138z"/>
<path class="st0" d="M57.7,134.5H47.3c-0.6,0-1-0.4-1-1s0.4-1,1-1h10.4c0.6,0,1,0.4,1,1S58.3,134.5,57.7,134.5z"/>
<path class="st0" d="M94.9,134.5l-32.2,0c-0.6,0-1-0.4-1-1s0.4-1,1-1l32.2,0c0.6,0,1,0.4,1,1S95.5,134.5,94.9,134.5z"/>
<path class="st0" d="M116.4,59.5c0,0-0.1,0-0.1,0c-0.5-0.1-0.9-0.6-0.9-1.1c0.9-6.8-1.7-14.1-7.8-22.5c-0.3-0.4-0.3-1.1,0.2-1.4
	c0.4-0.3,1.1-0.3,1.4,0.2c0,0,0,0,0,0c6.4,8.8,9.1,16.6,8.1,23.9C117.3,59.2,116.9,59.5,116.4,59.5z"/>
<path class="st0" d="M103.5,30.3c-0.3,0-0.5-0.1-0.7-0.3c-3.8-4-8.5-7.2-13.6-9.3c-0.5-0.2-0.8-0.8-0.6-1.3c0.2-0.5,0.8-0.8,1.3-0.6
	c0,0,0,0,0,0c5.4,2.2,10.2,5.6,14.3,9.8c0.4,0.4,0.4,1,0,1.4C104,30.2,103.8,30.3,103.5,30.3L103.5,30.3z"/>
<path class="st0" d="M64.1,39.4c-0.6,0-1-0.4-1-1c0-0.4,0.3-0.8,0.7-0.9l8.2-3c0.5-0.2,1.1,0.1,1.3,0.7c0,0.1,0,0.2,0.1,0.3
	c0,0.4-0.3,0.8-0.7,1l-8.1,3C64.4,39.4,64.3,39.4,64.1,39.4z"/>
<path class="st0" d="M65.4,43.2c-0.6,0-1-0.4-1-1c0-0.4,0.3-0.8,0.7-0.9l14.6-5.1c0.5-0.2,1.1,0.1,1.3,0.6c0.2,0.5-0.1,1.1-0.6,1.3
	l-14.6,5.1C65.7,43.2,65.6,43.2,65.4,43.2z"/>
<path class="st0" d="M66.9,47.5c-0.6,0-1-0.4-1-1c0-0.4,0.3-0.8,0.7-0.9L85.2,39c0.5-0.2,1.1,0.1,1.3,0.6c0.2,0.5-0.1,1.1-0.6,1.3
	l-18.7,6.5C67.1,47.5,67,47.5,66.9,47.5z"/>
<path class="st0" d="M68.4,51.7c-0.6,0-1-0.4-1-1c0-0.4,0.3-0.8,0.7-0.9l21.3-7.5c0.5-0.2,1.1,0.1,1.3,0.6c0.2,0.5-0.1,1.1-0.6,1.3
	l-21.3,7.5C68.6,51.7,68.5,51.7,68.4,51.7z"/>
<path class="st0" d="M69.8,56c-0.6,0-1-0.4-1-1c0-0.4,0.3-0.8,0.7-0.9l23.1-8.1c0.5-0.2,1.1,0.1,1.3,0.6c0.2,0.5-0.1,1.1-0.6,1.3
	l-23.1,8.1C70,55.9,69.9,56,69.8,56z"/>
<path class="st0" d="M71.2,60.2c-0.6,0-1-0.4-1-1c0-0.4,0.3-0.8,0.7-0.9l4-1.4c0.5-0.2,1.1,0.1,1.3,0.6c0.2,0.5-0.1,1.1-0.6,1.3
	l-4,1.4C71.4,60.2,71.3,60.2,71.2,60.2z"/>
<path class="st0" d="M92.9,81.3c-0.2,0-0.5-0.1-0.7-0.2L73.4,64.6c-0.4-0.4-0.5-1-0.1-1.4c0.1-0.1,0.1-0.1,0.2-0.2l21-13.5
	c0.5-0.3,1.1-0.2,1.4,0.3c0,0,0,0,0,0.1c2.3,4.2,3.4,9,3.4,13.7c0,6.2-2,12.3-5.6,17.3c-0.2,0.2-0.4,0.4-0.7,0.4
	C93,81.3,93,81.3,92.9,81.3L92.9,81.3z M75.7,64l17,14.8c3-4.5,4.6-9.8,4.6-15.2c0-4.1-0.9-8.1-2.7-11.8L75.7,64z"/>
<path class="st0" d="M70.1,92.9c-16.2,0-29.3-13.1-29.3-29.3c0-11.8,7.1-22.4,17.9-27c0.5-0.2,1.1,0,1.3,0.5c0,0,0,0,0,0.1L69.1,64
	c0.1,0.2,0.2,0.4,0.4,0.5L90.7,83c0.4,0.4,0.5,1,0.1,1.4c0,0,0,0,0,0.1C85.2,89.9,77.8,92.9,70.1,92.9z M58.5,38.9
	C44.9,45.3,39,61.6,45.4,75.2S68,94.7,81.7,88.3c2.5-1.2,4.8-2.7,6.8-4.6L68.2,66.1c-0.4-0.4-0.8-0.9-0.9-1.4l0-0.1L58.5,38.9z"/>
<path class="st0" d="M71.5,61.2c-0.1,0-0.2,0-0.3-0.1c-0.3-0.1-0.5-0.3-0.6-0.6l-8.1-24c-0.2-0.5,0.1-1.1,0.6-1.3c0,0,0.1,0,0.1,0
	c11.3-2.8,23.3,1.5,30.3,10.8c0.3,0.4,0.2,1.1-0.2,1.4c0,0,0,0-0.1,0L72.1,61C71.9,61.1,71.7,61.2,71.5,61.2z M64.7,36.9l7.4,21.8
	l19.1-12.3C84.8,38.5,74.6,34.9,64.7,36.9z"/>
<path class="st0" d="M92.4,58.6c-0.6,0-1-0.4-1-1c0-0.3,0.2-0.7,0.4-0.8l0.7-0.4c0.5-0.3,1.1-0.2,1.4,0.2s0.2,1.1-0.2,1.4
	c0,0,0,0-0.1,0L93,58.5C92.8,58.6,92.6,58.6,92.4,58.6z"/>
<path class="st0" d="M93.3,63.8c-0.6,0-1-0.4-1-1c0-0.3,0.2-0.7,0.4-0.8l0.7-0.4c0.5-0.3,1.1-0.1,1.4,0.3c0.3,0.4,0.2,1-0.3,1.3
	l-0.7,0.4C93.7,63.8,93.5,63.8,93.3,63.8z"/>
<path class="st0" d="M93.3,69.2c-0.6,0-1-0.4-1-1c0-0.3,0.2-0.6,0.4-0.8l0.7-0.4c0.5-0.3,1.1-0.1,1.4,0.3c0.3,0.4,0.2,1-0.3,1.3
	L93.8,69C93.6,69.1,93.5,69.2,93.3,69.2z"/>
<path class="st0" d="M91.9,74.9c-0.6,0-1-0.4-1-1c0-0.3,0.2-0.7,0.4-0.8l0.7-0.4c0.5-0.3,1.1-0.2,1.4,0.2c0.3,0.5,0.2,1.1-0.2,1.4
	c0,0,0,0-0.1,0l-0.7,0.4C92.3,74.9,92.1,74.9,91.9,74.9z"/>
<path class="st0" d="M87.7,61.2c-0.6,0-1-0.4-1-1c0-0.3,0.2-0.7,0.4-0.8l0.7-0.4c0.4-0.3,1.1-0.2,1.4,0.2s0.2,1.1-0.2,1.4
	c0,0,0,0-0.1,0L88.2,61C88,61.1,87.9,61.2,87.7,61.2z"/>
<path class="st0" d="M88.5,66.4c-0.6,0-1-0.4-1-1c0-0.3,0.2-0.6,0.4-0.8l0.7-0.4c0.5-0.3,1.1-0.1,1.4,0.3c0.3,0.4,0.2,1-0.3,1.3
	L89,66.2C88.9,66.3,88.7,66.4,88.5,66.4z"/>
<path class="st0" d="M88.5,71.7c-0.6,0-1-0.4-1-1c0-0.3,0.2-0.6,0.4-0.8l0.7-0.4c0.5-0.3,1.1-0.2,1.4,0.2c0.3,0.5,0.2,1.1-0.2,1.4
	c0,0,0,0-0.1,0L89,71.6C88.9,71.7,88.7,71.7,88.5,71.7z"/>
<path class="st0" d="M82.8,64.2c-0.6,0-1-0.4-1-1c0-0.3,0.2-0.7,0.4-0.8l0.7-0.4c0.5-0.3,1.1-0.1,1.4,0.3c0.3,0.4,0.2,1-0.3,1.3
	L83.3,64C83.2,64.1,83,64.2,82.8,64.2z"/>
<path class="st0" d="M83.6,69.4c-0.6,0-1-0.4-1-1c0-0.3,0.2-0.7,0.4-0.8l0.7-0.4c0.5-0.3,1.1-0.1,1.4,0.3c0.3,0.4,0.2,1-0.3,1.3
	l-0.7,0.4C84,69.4,83.8,69.4,83.6,69.4z"/>
</svg>
