<?xml version="1.0" encoding="utf-8"?>
<!-- Generator: Adobe Illustrator 28.1.0, SVG Export Plug-In . SVG Version: 6.00 Build 0)  -->
<svg version="1.1" id="Layer_1" xmlns="http://www.w3.org/2000/svg" xmlns:xlink="http://www.w3.org/1999/xlink" x="0px" y="0px"
	 viewBox="0 0 150 150" style="enable-background:new 0 0 150 150;" xml:space="preserve">
<style type="text/css">
	.st0{fill:#BE1622;}
</style>
<path class="st0" d="M75,115.7c-22.5,0-40.7-18.2-40.7-40.7c0-22.5,18.2-40.7,40.7-40.7c22.5,0,40.7,18.2,40.7,40.7v0
	C115.7,97.5,97.5,115.7,75,115.7z M75,36.3c-21.4,0-38.7,17.3-38.7,38.7s17.3,38.7,38.7,38.7s38.7-17.3,38.7-38.7l0,0
	C113.7,53.6,96.4,36.3,75,36.3z"/>
<path class="st0" d="M75,108.8c-18.7,0-33.8-15.2-33.8-33.8S56.3,41.2,75,41.2s33.8,15.2,33.8,33.8C108.8,93.7,93.7,108.8,75,108.8z
	 M75,43.2c-17.6,0-31.8,14.3-31.8,31.8s14.3,31.8,31.8,31.8s31.8-14.3,31.8-31.8C106.8,57.4,92.6,43.2,75,43.2z"/>
<path class="st0" d="M75,97c-6.3,0-11.5-5.1-11.5-11.5c0-0.6,0.4-1,1-1s1,0.4,1,1c0,5.2,4.2,9.5,9.5,9.5c5.2,0,9.5-4.2,9.5-9.5
	c0-5.2-4.2-9.5-9.5-9.5c0,0,0,0,0,0c-6.3,0-11.5-5.1-11.5-11.5C63.5,58.2,68.7,53,75,53c6.3,0,11.5,5.1,11.5,11.5c0,0,0,0,0,0
	c0,0.6-0.4,1-1,1s-1-0.4-1-1c0-5.2-4.2-9.5-9.5-9.5c-5.2,0-9.5,4.2-9.5,9.5c0,5.2,4.2,9.5,9.5,9.5c0,0,0,0,0,0
	c6.3,0.1,11.4,5.2,11.4,11.6C86.3,91.9,81.3,96.9,75,97z"/>
<path class="st0" d="M75,99.5c-0.6,0-1-0.4-1-1v-47c0-0.6,0.4-1,1-1s1,0.4,1,1v47C76,99,75.6,99.5,75,99.5z"/>
<path class="st0" d="M75,29.6c-0.6,0-1-0.4-1-1V11c0-0.6,0.4-1,1-1s1,0.4,1,1v17.6C76,29.2,75.6,29.6,75,29.6z"/>
<path class="st0" d="M79.9,17.9c-0.3,0-0.6-0.1-0.8-0.4l-4.2-5l-4.2,5c-0.4,0.4-1,0.5-1.4,0.1c-0.4-0.4-0.5-1-0.1-1.4l4.9-5.9
	c0.4-0.4,1-0.5,1.5-0.1c0,0,0.1,0,0.1,0.1l4.9,5.9c0.4,0.4,0.3,1.1-0.1,1.4C80.4,17.8,80.2,17.9,79.9,17.9L79.9,17.9z"/>
<path class="st0" d="M47.7,38.5c-0.3,0-0.6-0.2-0.8-0.4L36.6,23.8c-0.3-0.4-0.3-1.1,0.2-1.4c0.4-0.3,1.1-0.3,1.4,0.2c0,0,0,0,0,0
	l10.4,14.3c0.3,0.4,0.2,1.1-0.2,1.4C48.2,38.4,48,38.5,47.7,38.5L47.7,38.5z"/>
<path class="st0" d="M36.9,31.9L36.9,31.9c-0.6,0-1-0.5-1-1.1l0.5-7.7c0-0.6,0.5-1,1.1-0.9c0.1,0,0.1,0,0.2,0l7.5,1.9
	c0.5,0.1,0.9,0.7,0.7,1.2s-0.7,0.9-1.2,0.7c0,0,0,0,0,0l-6.3-1.6L37.9,31C37.8,31.5,37.4,31.9,36.9,31.9z"/>
<path class="st0" d="M30.9,61.7c-0.1,0-0.2,0-0.3,0l-16.8-5.4c-0.5-0.1-0.8-0.7-0.7-1.2c0.1-0.5,0.7-0.8,1.2-0.7c0,0,0.1,0,0.1,0
	l16.8,5.4c0.5,0.2,0.8,0.7,0.6,1.3C31.7,61.4,31.3,61.7,30.9,61.7L30.9,61.7z"/>
<path class="st0" d="M18.2,62.8c-0.3,0-0.7-0.2-0.8-0.5l-4.1-6.5c-0.3-0.5-0.2-1.1,0.3-1.4c0.1,0,0.1-0.1,0.2-0.1l7.2-2.9
	c0.5-0.2,1.1,0,1.3,0.6s0,1.1-0.6,1.3l-6,2.4l3.5,5.5c0.3,0.5,0.2,1.1-0.3,1.4C18.6,62.7,18.4,62.8,18.2,62.8z"/>
<path class="st0" d="M14.1,95.8c-0.6,0-1-0.4-1-1c0-0.4,0.3-0.8,0.7-0.9l16.8-5.4c0.5-0.2,1.1,0.1,1.3,0.6s-0.1,1.1-0.6,1.3
	c0,0-0.1,0-0.1,0l-16.8,5.4C14.3,95.8,14.2,95.8,14.1,95.8z"/>
<path class="st0" d="M21.3,98.6c-0.1,0-0.3,0-0.4-0.1l-7.2-2.9c-0.5-0.2-0.8-0.8-0.6-1.3c0-0.1,0.1-0.1,0.1-0.2l4.1-6.5
	c0.3-0.5,0.9-0.6,1.4-0.3c0.5,0.3,0.6,0.9,0.3,1.4l-3.5,5.5l6,2.4c0.5,0.2,0.8,0.8,0.6,1.3C22.1,98.4,21.7,98.6,21.3,98.6L21.3,98.6
	z"/>
<path class="st0" d="M37.4,127.8c-0.6,0-1-0.4-1-1c0-0.2,0.1-0.4,0.2-0.6l10.4-14.3c0.3-0.5,0.9-0.6,1.4-0.3
	c0.5,0.3,0.6,0.9,0.3,1.4c0,0,0,0,0,0.1l-10.4,14.3C38,127.6,37.7,127.8,37.4,127.8z"/>
<path class="st0" d="M37.4,127.8c-0.5,0-1-0.4-1-0.9l-0.5-7.7c0-0.6,0.4-1,0.9-1.1c0.6,0,1,0.4,1.1,0.9l0.4,6.5l6.3-1.6
	c0.5-0.2,1.1,0.2,1.2,0.7s-0.2,1.1-0.7,1.2c0,0,0,0-0.1,0l-7.5,1.9C37.5,127.8,37.5,127.8,37.4,127.8z"/>
<path class="st0" d="M75,140c-0.6,0-1-0.4-1-1v-17.6c0-0.6,0.4-1,1-1s1,0.4,1,1V139C76,139.6,75.6,140,75,140z"/>
<path class="st0" d="M75,140c-0.3,0-0.6-0.1-0.8-0.4l-4.9-5.9c-0.4-0.4-0.3-1.1,0.1-1.4c0.4-0.4,1.1-0.3,1.4,0.1l4.2,5l4.2-5
	c0.4-0.4,1-0.5,1.4-0.1c0.4,0.4,0.5,1,0.1,1.4l0,0l-4.9,5.9C75.6,139.9,75.3,140,75,140z"/>
<path class="st0" d="M112.6,127.8c-0.3,0-0.6-0.2-0.8-0.4l-10.4-14.3c-0.3-0.4-0.3-1.1,0.2-1.4c0.4-0.3,1.1-0.3,1.4,0.2
	c0,0,0,0,0,0.1l10.4,14.3c0.3,0.4,0.2,1.1-0.2,1.4C113,127.7,112.8,127.8,112.6,127.8L112.6,127.8z"/>
<path class="st0" d="M112.6,127.8c-0.1,0-0.2,0-0.2,0l-7.5-1.9c-0.5-0.1-0.9-0.7-0.8-1.2c0.1-0.5,0.7-0.9,1.2-0.8c0,0,0,0,0.1,0
	l6.3,1.6l0.4-6.5c0-0.5,0.5-1,1.1-0.9c0.6,0,1,0.5,0.9,1.1l-0.5,7.7C113.6,127.4,113.1,127.8,112.6,127.8L112.6,127.8z"/>
<path class="st0" d="M135.9,95.8c-0.1,0-0.2,0-0.3,0l-16.8-5.4c-0.5-0.1-0.8-0.7-0.7-1.2s0.7-0.8,1.2-0.7c0,0,0.1,0,0.1,0l16.8,5.4
	c0.5,0.2,0.8,0.7,0.6,1.3C136.7,95.5,136.3,95.8,135.9,95.8L135.9,95.8z"/>
<path class="st0" d="M128.7,98.6c-0.6,0-1-0.4-1-1c0-0.4,0.2-0.8,0.6-0.9l6-2.4l-3.5-5.5c-0.3-0.5-0.2-1.1,0.3-1.4s1.1-0.2,1.4,0.3
	l4.1,6.5c0.3,0.5,0.2,1.1-0.3,1.4c-0.1,0-0.1,0.1-0.2,0.1l-7.2,2.9C129,98.6,128.8,98.6,128.7,98.6z"/>
<path class="st0" d="M119.1,61.7c-0.6,0-1-0.4-1-1c0-0.4,0.3-0.8,0.7-1l16.8-5.4c0.5-0.2,1.1,0.1,1.3,0.6s-0.1,1.1-0.6,1.3
	c0,0-0.1,0-0.1,0l-16.8,5.4C119.3,61.7,119.2,61.7,119.1,61.7L119.1,61.7z"/>
<path class="st0" d="M131.8,62.8c-0.6,0-1-0.4-1-1c0-0.2,0.1-0.4,0.2-0.5l3.5-5.5l-6-2.4c-0.5-0.2-0.8-0.8-0.6-1.3
	c0.2-0.5,0.8-0.8,1.3-0.6l7.2,2.9c0.5,0.2,0.8,0.8,0.6,1.3c0,0.1-0.1,0.1-0.1,0.2l-4.1,6.5C132.4,62.6,132.1,62.8,131.8,62.8
	L131.8,62.8z"/>
<path class="st0" d="M102.3,38.5c-0.6,0-1-0.4-1-1c0-0.2,0.1-0.4,0.2-0.6l10.4-14.3c0.3-0.5,0.9-0.6,1.4-0.3
	c0.5,0.3,0.6,0.9,0.3,1.4c0,0,0,0,0,0l-10.4,14.3C102.9,38.3,102.6,38.5,102.3,38.5z"/>
<path class="st0" d="M113.1,31.9c-0.5,0-1-0.4-1-0.9l-0.4-6.5l-6.3,1.6c-0.5,0.1-1.1-0.2-1.2-0.7c-0.1-0.5,0.2-1.1,0.7-1.2
	c0,0,0,0,0,0l7.5-1.9c0.5-0.1,1.1,0.2,1.2,0.7c0,0.1,0,0.1,0,0.2l0.5,7.7C114.2,31.4,113.7,31.9,113.1,31.9L113.1,31.9z"/>
</svg>
