<?xml version="1.0" encoding="utf-8"?>
<!-- Generator: Adobe Illustrator 28.1.0, SVG Export Plug-In . SVG Version: 6.00 Build 0)  -->
<svg version="1.1" id="Layer_1" xmlns="http://www.w3.org/2000/svg" xmlns:xlink="http://www.w3.org/1999/xlink" x="0px" y="0px"
	 viewBox="0 0 150 150" style="enable-background:new 0 0 150 150;" xml:space="preserve">
<style type="text/css">
	.st0{fill:#BE1622;}
</style>
<path class="st0" d="M11,122.2c-0.1,0-0.1,0-0.2,0c-0.5-0.1-0.8-0.5-0.8-1V28.8c0-0.6,0.4-1,1-1h30.7c0.4,0,0.7,0.2,0.9,0.5
	l6.9,12.9h67.9c0.6,0,1,0.4,1,1v13.4c0,0.6-0.4,1-1,1h-84l-21.4,64.8C11.8,121.9,11.4,122.2,11,122.2z M12,29.8V115l19.7-59.6
	c0.1-0.4,0.5-0.7,0.9-0.7h83.7V43.3H48.9c-0.4,0-0.7-0.2-0.9-0.5l-6.9-12.9H12z"/>
<path class="st0" d="M117.4,122.2H11c-0.6,0-1-0.4-1-1c0-0.1,0-0.2,0.1-0.3l21.6-65.5c0.1-0.4,0.5-0.7,0.9-0.7H139c0.6,0,1,0.4,1,1
	c0,0.1,0,0.2-0.1,0.3l-21.6,65.5C118.2,121.9,117.8,122.2,117.4,122.2z M12.4,120.2h104.2l21-63.5H33.4L12.4,120.2z"/>
<path class="st0" d="M74.1,110.1c-10.9,0-19.7-8.8-19.7-19.7c0-10.9,8.8-19.7,19.7-19.7c10.9,0,19.7,8.8,19.7,19.7c0,0,0,0,0,0
	C93.8,101.3,85,110.1,74.1,110.1z M74.1,72.7c-9.8,0-17.7,7.9-17.7,17.7c0,9.8,7.9,17.7,17.7,17.7c9.8,0,17.7-7.9,17.7-17.7
	c0,0,0,0,0,0C91.8,80.6,83.9,72.7,74.1,72.7z"/>
<path class="st0" d="M74.1,102.8c-6.9,0-12.4-5.6-12.4-12.4S67.3,78,74.1,78c6.9,0,12.4,5.6,12.4,12.4
	C86.5,97.2,81,102.8,74.1,102.8z M74.1,80c-5.7,0-10.4,4.7-10.4,10.4s4.7,10.4,10.4,10.4c5.7,0,10.4-4.7,10.4-10.4
	C84.5,84.6,79.9,80,74.1,80z"/>
<path class="st0" d="M74.1,95.5c-2.8,0-5.1-2.3-5.1-5.1s2.3-5.1,5.1-5.1c2.8,0,5.1,2.3,5.1,5.1l0,0C79.2,93.2,76.9,95.5,74.1,95.5z
	 M74.1,87.3c-1.7,0-3.1,1.4-3.1,3.1c0,1.7,1.4,3.1,3.1,3.1c1.7,0,3.1-1.4,3.1-3.1c0,0,0,0,0,0C77.2,88.7,75.8,87.3,74.1,87.3z"/>
<path class="st0" d="M74.1,75.3c-0.6,0-1-0.4-1-1V69c0-0.6,0.4-1,1-1s1,0.4,1,1v5.3C75.1,74.9,74.7,75.3,74.1,75.3z"/>
<path class="st0" d="M74.1,112.8c-0.6,0-1-0.4-1-1v-5.3c0-0.6,0.4-1,1-1s1,0.4,1,1v5.3C75.1,112.3,74.7,112.8,74.1,112.8z"/>
<path class="st0" d="M95.5,91.4h-5.3c-0.6,0-1-0.4-1-1s0.4-1,1-1h5.3c0.6,0,1,0.4,1,1S96,91.4,95.5,91.4z"/>
<path class="st0" d="M58.1,91.4h-5.3c-0.6,0-1-0.4-1-1s0.4-1,1-1h5.3c0.6,0,1,0.4,1,1S58.6,91.4,58.1,91.4z"/>
<path class="st0" d="M113.7,117.2c-0.6,0-1-0.4-1-1c0-0.1,0-0.2,0.1-0.3l3.7-11.2c0.2-0.5,0.7-0.8,1.3-0.6s0.8,0.7,0.6,1.3l0,0
	l-3.7,11.2C114.6,116.9,114.2,117.2,113.7,117.2z"/>
<path class="st0" d="M119.2,100.7c-0.6,0-1-0.4-1-1c0-0.1,0-0.2,0.1-0.3l9.6-29c0.2-0.5,0.7-0.8,1.3-0.6s0.8,0.7,0.6,1.3l0,0
	l-9.6,29C120,100.4,119.6,100.7,119.2,100.7z"/>
</svg>
