<?xml version="1.0" encoding="utf-8"?>
<!-- Generator: Adobe Illustrator 28.1.0, SVG Export Plug-In . SVG Version: 6.00 Build 0)  -->
<svg version="1.1" id="Layer_1" xmlns="http://www.w3.org/2000/svg" xmlns:xlink="http://www.w3.org/1999/xlink" x="0px" y="0px"
	 viewBox="0 0 150 150" style="enable-background:new 0 0 150 150;" xml:space="preserve">
<style type="text/css">
	.st0{fill:#BE1622;}
</style>
<path class="st0" d="M36.7,132.7h-17c-0.6,0-1-0.4-1-1V90.4c0-0.6,0.4-1,1-1h17c0.6,0,1,0.4,1,1v41.3
	C37.7,132.2,37.2,132.7,36.7,132.7z M20.7,130.7h15V91.4h-15V130.7z"/>
<path class="st0" d="M67.9,132.7h-17c-0.6,0-1-0.4-1-1v-60c0-0.6,0.4-1,1-1h17c0.6,0,1,0.4,1,1v60C68.9,132.2,68.5,132.7,67.9,132.7
	z M51.9,130.7h15v-58h-15L51.9,130.7z"/>
<path class="st0" d="M99.1,132.7h-17c-0.6,0-1-0.4-1-1V52.9c0-0.6,0.4-1,1-1h17c0.6,0,1,0.4,1,1v78.7
	C100.1,132.2,99.7,132.7,99.1,132.7z M83.1,130.7h15V53.9h-15L83.1,130.7z"/>
<path class="st0" d="M130.3,132.7h-17c-0.6,0-1-0.4-1-1V34.2c0-0.6,0.4-1,1-1h17c0.6,0,1,0.4,1,1v97.4
	C131.3,132.2,130.9,132.7,130.3,132.7z M114.3,130.7h15V35.2h-15V130.7z"/>
<path class="st0" d="M139,140H11c-0.6,0-1-0.4-1-1v-7.3c0-0.6,0.4-1,1-1h128c0.6,0,1,0.4,1,1v7.3C140,139.6,139.6,140,139,140z
	 M12,138h126v-5.3H12V138z"/>
<path class="st0" d="M32.7,70.7c-0.6,0-1-0.4-1-1c0-0.4,0.2-0.7,0.5-0.9l22.3-13.2c0.5-0.3,1.1-0.1,1.4,0.4s0.1,1.1-0.4,1.4
	L33.2,70.5C33.1,70.6,32.9,70.7,32.7,70.7z"/>
<path class="st0" d="M95.4,33.7c-0.6,0-1-0.4-1-1c0-0.4,0.2-0.7,0.5-0.9l22.3-13.2c0.5-0.3,1.1-0.1,1.4,0.4s0.1,1.1-0.4,1.4l0,0
	L95.9,33.6C95.7,33.7,95.5,33.7,95.4,33.7z"/>
<path class="st0" d="M64,52.2c-0.6,0-1-0.4-1-1c0-0.4,0.2-0.7,0.5-0.9l22.3-13.2c0.5-0.3,1.1-0.1,1.4,0.4s0.1,1.1-0.4,1.4l0,0
	L64.5,52C64.4,52.1,64.2,52.2,64,52.2z"/>
<path class="st0" d="M28.2,78.6c-3.5,0-6.3-2.8-6.3-6.3c0-3.5,2.8-6.3,6.3-6.3c3.5,0,6.3,2.8,6.3,6.3c0,0,0,0,0,0
	C34.4,75.8,31.6,78.6,28.2,78.6z M28.2,68.1c-2.4,0-4.3,1.9-4.3,4.3s1.9,4.3,4.3,4.3c2.4,0,4.3-1.9,4.3-4.3c0,0,0,0,0,0
	C32.4,70,30.5,68.1,28.2,68.1z"/>
<path class="st0" d="M59.4,59.9c-3.5,0-6.3-2.8-6.3-6.3s2.8-6.3,6.3-6.3s6.3,2.8,6.3,6.3C65.7,57.1,62.9,59.9,59.4,59.9z M59.4,49.4
	c-2.4,0-4.3,1.9-4.3,4.3s1.9,4.3,4.3,4.3s4.3-1.9,4.3-4.3C63.7,51.3,61.7,49.4,59.4,49.4z"/>
<path class="st0" d="M90.6,41.2c-3.5,0-6.3-2.8-6.3-6.3c0-3.5,2.8-6.3,6.3-6.3c3.5,0,6.3,2.8,6.3,6.3C96.9,38.4,94.1,41.2,90.6,41.2
	z M90.6,30.7c-2.4,0-4.3,1.9-4.3,4.3c0,2.4,1.9,4.3,4.3,4.3c2.4,0,4.3-1.9,4.3-4.3v0C94.9,32.6,93,30.7,90.6,30.7z"/>
<path class="st0" d="M121.8,22.5c-3.5,0-6.3-2.8-6.3-6.3c0-3.5,2.8-6.3,6.3-6.3c3.5,0,6.3,2.8,6.3,6.3v0
	C128.1,19.7,125.3,22.5,121.8,22.5z M121.8,12c-2.4,0-4.3,1.9-4.3,4.3c0,2.4,1.9,4.3,4.3,4.3c2.4,0,4.3-1.9,4.3-4.3v0
	C126.1,13.9,124.2,12,121.8,12z"/>
<path class="st0" d="M23.7,115.8c-0.6,0-1-0.4-1-1V96.9c0-0.6,0.4-1,1-1s1,0.4,1,1v17.9C24.7,115.4,24.2,115.8,23.7,115.8z"/>
<path class="st0" d="M23.7,128.7c-0.6,0-1-0.4-1-1V120c0-0.6,0.4-1,1-1s1,0.4,1,1v7.7C24.7,128.2,24.2,128.7,23.7,128.7z"/>
<path class="st0" d="M54.9,115.8c-0.6,0-1-0.4-1-1V78.2c0-0.6,0.4-1,1-1s1,0.4,1,1v36.6C55.9,115.4,55.4,115.8,54.9,115.8z"/>
<path class="st0" d="M54.9,128.7c-0.6,0-1-0.4-1-1V120c0-0.6,0.4-1,1-1s1,0.4,1,1v7.7C55.9,128.2,55.4,128.7,54.9,128.7z"/>
<path class="st0" d="M86.1,115.8c-0.6,0-1-0.4-1-1V61.1c0-0.6,0.4-1,1-1s1,0.4,1,1v53.8C87.1,115.4,86.7,115.8,86.1,115.8z"/>
<path class="st0" d="M86.1,128.7c-0.6,0-1-0.4-1-1V120c0-0.6,0.4-1,1-1s1,0.4,1,1v7.7C87.1,128.2,86.7,128.7,86.1,128.7z"/>
<path class="st0" d="M117.3,115.8c-0.6,0-1-0.4-1-1V44.4c0-0.6,0.4-1,1-1s1,0.4,1,1v70.4C118.3,115.4,117.9,115.8,117.3,115.8z"/>
<path class="st0" d="M117.3,128.7c-0.6,0-1-0.4-1-1V120c0-0.6,0.4-1,1-1s1,0.4,1,1v7.7C118.3,128.2,117.9,128.7,117.3,128.7z"/>
</svg>
