<?xml version="1.0" encoding="utf-8"?>
<!-- Generator: Adobe Illustrator 28.1.0, SVG Export Plug-In . SVG Version: 6.00 Build 0)  -->
<svg version="1.1" id="Layer_1" xmlns="http://www.w3.org/2000/svg" xmlns:xlink="http://www.w3.org/1999/xlink" x="0px" y="0px"
	 viewBox="0 0 150 150" style="enable-background:new 0 0 150 150;" xml:space="preserve">
<style type="text/css">
	.st0{fill:#BE1622;}
</style>
<path class="st0" d="M94.5,110.4H55.5c-0.5,0-0.9-0.4-1-0.9c-1.2-10.5-5.2-15-11.8-22.6c-0.7-0.8-1.3-1.5-2-2.4
	c-16.3-18.9-14.1-47.4,4.8-63.7S93,6.8,109.2,25.7c14.5,16.8,14.6,41.6,0.2,58.6c-0.8,1-1.7,1.9-2.4,2.9c-6.4,7.5-10.3,12-11.6,22.3
	C95.4,110,95,110.4,94.5,110.4z M56.4,108.4h37.2c1.4-10.3,5.7-15.2,11.9-22.5c0.8-0.9,1.6-1.8,2.4-2.8
	c15.4-18.2,13.1-45.4-5.1-60.8S57.4,9.1,42,27.3c-13.7,16.2-13.6,39.9,0.2,56c0.7,0.8,1.4,1.6,2,2.3C50.7,93,55,97.9,56.4,108.4z"/>
<path class="st0" d="M76.6,140h-3.2c-4,0-7.2-3.2-7.2-7.2v-0.5c0-0.6,0.4-1,1-1s1,0.4,1,1v0.5c0,2.9,2.3,5.2,5.2,5.2h3.2
	c2.9,0,5.2-2.3,5.2-5.2v-0.4c0-0.6,0.4-1,1-1s1,0.4,1,1v0.4C83.8,136.8,80.6,140,76.6,140z"/>
<path class="st0" d="M76,134.9H74c-10.8,0-19.5-8.7-19.5-19.5v-6.1c0-0.6,0.4-1,1-1h39.1c0.6,0,1,0.4,1,1v6.1
	C95.5,126.2,86.8,134.9,76,134.9z M56.5,110.4v5.1c0,9.7,7.8,17.5,17.5,17.5H76c9.7,0,17.5-7.8,17.5-17.5v-5.1H56.5z"/>
<path class="st0" d="M94.5,116.6h-39c-0.6,0-1-0.4-1-1s0.4-1,1-1h39c0.6,0,1,0.4,1,1S95.1,116.6,94.5,116.6z"/>
<path class="st0" d="M93.1,122.7H56.9c-0.6,0-1-0.4-1-1s0.4-1,1-1h36.3c0.6,0,1,0.4,1,1S93.7,122.7,93.1,122.7L93.1,122.7z"/>
<path class="st0" d="M89.3,128.7H60.7c-0.6,0-1-0.4-1-1c0-0.6,0.4-1,1-1h28.5c0.6,0,1,0.4,1,1C90.3,128.3,89.8,128.7,89.3,128.7z"/>
<path class="st0" d="M80.6,69.3c-0.2,0-0.4-0.1-0.6-0.2l-0.7-0.5c-2.6-1.9-6-1.9-8.6,0L70.2,69c-0.4,0.3-1.1,0.3-1.4-0.2
	c-0.3-0.4-0.3-1.1,0.2-1.4c0,0,0,0,0.1,0l0.5-0.4c3.3-2.4,7.7-2.4,10.9,0l0.7,0.5c0.4,0.3,0.5,1,0.2,1.4
	C81.2,69.1,80.9,69.3,80.6,69.3L80.6,69.3z"/>
<path class="st0" d="M86.5,110.4H63.5c-0.5,0-0.9-0.3-1-0.8L57,80.4l-0.8-0.8c-0.2-0.2-0.4-0.5-0.6-0.7c-2.3-2.7-2.2-6.7,0.1-9.4
	c2.3-2.9,6.2-3.8,9.5-2.2c0.5,0.3,0.7,0.9,0.4,1.3s-0.9,0.7-1.3,0.4c-2.4-1.2-5.4-0.5-7.1,1.7c-1.7,2-1.7,4.9,0,6.9
	c0.1,0.2,0.3,0.4,0.5,0.5l1,1c0.1,0.1,0.2,0.3,0.3,0.5l5.4,28.6h21.4l5.4-28.6c0-0.2,0.1-0.4,0.3-0.5l1-1c0.2-0.2,0.3-0.3,0.5-0.5
	c1.7-2,1.7-4.9,0-6.8c-1.6-2.2-4.5-2.9-7-1.8c-0.5,0.2-1.1,0-1.3-0.5c-0.2-0.5,0-1,0.4-1.3c3.3-1.5,7.2-0.6,9.4,2.3
	c2.3,2.7,2.3,6.6,0,9.3c-0.2,0.2-0.4,0.5-0.6,0.7L93,80.4l-5.5,29.2C87.4,110.1,87,110.4,86.5,110.4z"/>
<path class="st0" d="M67.2,73.8c-2.2,0-3.9-1.8-3.9-3.9c0-2.2,1.8-3.9,3.9-3.9c2.2,0,3.9,1.8,3.9,3.9c0,0,0,0,0,0
	C71.1,72.1,69.4,73.8,67.2,73.8z M67.2,68c-1.1,0-1.9,0.9-1.9,1.9c0,1.1,0.9,1.9,1.9,1.9c1.1,0,1.9-0.9,1.9-1.9c0,0,0,0,0,0
	C69.1,68.8,68.3,68,67.2,68z"/>
<path class="st0" d="M83,73.8c-2.2,0-3.9-1.8-3.9-3.9c0-2.2,1.8-3.9,3.9-3.9c2.2,0,3.9,1.8,3.9,3.9c0,0,0,0,0,0
	C86.9,72.1,85.2,73.8,83,73.8z M83,68c-1.1,0-1.9,0.9-1.9,1.9c0,1.1,0.9,1.9,1.9,1.9c1.1,0,1.9-0.9,1.9-1.9c0,0,0,0,0,0
	C84.9,68.8,84.1,68,83,68z"/>
<path class="st0" d="M38.8,45.1c-0.1,0-0.2,0-0.3,0c-0.5-0.2-0.8-0.7-0.7-1.2c0,0,0,0,0,0c1.5-5,4.1-9.7,7.5-13.7
	c0.4-0.4,1-0.5,1.4-0.1s0.5,1,0.1,1.4c-3.2,3.8-5.7,8.2-7.1,13C39.6,44.8,39.3,45.1,38.8,45.1z"/>
<path class="st0" d="M57.4,22.7c-0.6,0-1-0.4-1-1c0-0.4,0.2-0.7,0.5-0.9c4.5-2.4,9.4-3.8,14.5-4.3c0.6-0.1,1,0.4,1.1,0.9
	c0.1,0.6-0.4,1-0.9,1.1c-4.8,0.4-9.4,1.8-13.7,4.1C57.7,22.7,57.6,22.7,57.4,22.7z"/>
<path class="st0" d="M112.6,52.7c-0.5,0-1-0.4-1-0.9c-1.2-13.2-9.5-24.7-21.6-30.2c-0.5-0.2-0.7-0.8-0.5-1.3
	c0.2-0.5,0.8-0.7,1.3-0.5c0,0,0,0,0,0c12.8,5.7,21.4,17.9,22.8,31.8C113.7,52.1,113.3,52.6,112.6,52.7
	C112.7,52.7,112.7,52.7,112.6,52.7C112.7,52.7,112.7,52.7,112.6,52.7z"/>
</svg>
