<?xml version="1.0" encoding="utf-8"?>
<!-- Generator: Adobe Illustrator 28.1.0, SVG Export Plug-In . SVG Version: 6.00 Build 0)  -->
<svg version="1.1" id="Layer_1" xmlns="http://www.w3.org/2000/svg" xmlns:xlink="http://www.w3.org/1999/xlink" x="0px" y="0px"
	 viewBox="0 0 150 150" style="enable-background:new 0 0 150 150;" xml:space="preserve">
<style type="text/css">
	.st0{fill:#BE1622;}
</style>
<path class="st0" d="M120.8,105.4H89.8c-0.6,0-1-0.4-1-1s0.4-1,1-1h30.9c9.5,0,17.2-7.7,17.3-17.2c0-7.5-4.8-14.1-12-16.4
	c-0.5-0.2-0.8-0.7-0.7-1.2c0.3-1.2,0.4-2.4,0.4-3.7c0-9.4-7.6-17-17-17c-3.4,0-6.7,1-9.5,2.9c-0.5,0.3-1.1,0.2-1.4-0.3
	c-0.1-0.2-0.2-0.4-0.2-0.6l0-0.5c0-12.6-10.2-22.7-22.7-22.8c-11.4,0-21,8.4-22.5,19.7c-0.1,0.5-0.6,0.9-1.1,0.9
	c-0.1,0-0.3-0.1-0.4-0.1C43,42,32.5,44.3,27.4,52.2c-3,4.7-3.5,10.6-1.4,15.8c0.2,0.5,0,1.1-0.5,1.3c-0.1,0-0.1,0-0.2,0.1
	C16.1,71.5,10.3,80.7,12.4,90c1.8,7.8,8.8,13.4,16.8,13.4h22c0.6,0,1,0.4,1,1s-0.4,1-1,1h-22c-10.6,0-19.2-8.6-19.2-19.2
	c0-8.5,5.6-16,13.8-18.5c-3.5-9.9,1.7-20.8,11.6-24.3c5-1.8,10.6-1.3,15.3,1.2c2.6-13.4,15.6-22.2,29-19.5c11.2,2.2,19.4,11.7,20,23
	c9.2-5,20.8-1.6,25.8,7.7c2,3.8,2.8,8.1,2,12.3c10,3.7,15,14.8,11.3,24.8C136,100.4,128.8,105.4,120.8,105.4L120.8,105.4z
	 M82.2,105.4H58.8c-0.6,0-1-0.4-1-1s0.4-1,1-1h23.4c0.6,0,1,0.4,1,1S82.8,105.4,82.2,105.4z"/>
<path class="st0" d="M28.9,60.4c-0.1,0-0.1,0-0.2,0c-0.5-0.1-0.9-0.6-0.8-1.1c0.9-5.5,4.9-9.9,10.2-11.4c0.5-0.2,1.1,0.1,1.2,0.7
	c0.2,0.5-0.1,1.1-0.7,1.2c0,0,0,0-0.1,0c-4.6,1.2-8,5.1-8.8,9.8C29.8,60,29.4,60.4,28.9,60.4z"/>
<path class="st0" d="M56.9,45.5c-0.1,0-0.2,0-0.3,0c-0.5-0.1-0.9-0.7-0.7-1.2c2.3-8.6,10.1-14.6,19.1-14.6c0.6,0,1,0.4,1,1
	s-0.4,1-1,1c-8,0-15,5.4-17.1,13.2C57.8,45.2,57.4,45.5,56.9,45.5z"/>
<path class="st0" d="M121.8,65.9c-0.6,0-1-0.4-1-1c0-6.6-5.4-12-12-12c-0.6,0-1-0.4-1-1s0.4-1,1-1c7.7,0,14,6.3,14,14
	C122.8,65.4,122.3,65.9,121.8,65.9z"/>
<path class="st0" d="M55.1,125.4c-0.3,0-0.6-0.2-0.8-0.4L46,112.7c-0.3-0.5-0.2-1.1,0.3-1.4c0.2-0.1,0.4-0.2,0.6-0.2h3.4V84.4
	c0-0.6,0.4-1,1-1h7.6c0.6,0,1,0.4,1,1v26.8h3.4c0.6,0,1,0.4,1,1c0,0.2-0.1,0.4-0.2,0.6l-8.2,12.2C55.7,125.2,55.4,125.4,55.1,125.4z
	 M48.7,113.1l6.3,9.4l6.3-9.4h-2.5c-0.6,0-1-0.4-1-1V85.4h-5.6v26.8c0,0.6-0.4,1-1,1H48.7z"/>
<path class="st0" d="M89.8,125.4h-7.6c-0.6,0-1-0.4-1-1V97.6h-3.4c-0.6,0-1-0.5-1-1c0-0.2,0.1-0.4,0.2-0.6l8.2-12.2
	c0.3-0.5,1-0.6,1.5-0.2c0.1,0.1,0.1,0.1,0.2,0.2l8.2,12.2c0.3,0.5,0.2,1.1-0.3,1.4c-0.2,0.1-0.4,0.2-0.6,0.2h-3.4v26.8
	C90.8,124.9,90.4,125.4,89.8,125.4z M83.2,123.4h5.6V96.6c0-0.6,0.4-1,1-1h2.5L86,86.2l-6.3,9.4h2.6c0.6,0,1,0.4,1,1L83.2,123.4z"/>
</svg>
