<?xml version="1.0" encoding="utf-8"?>
<!-- Generator: Adobe Illustrator 28.1.0, SVG Export Plug-In . SVG Version: 6.00 Build 0)  -->
<svg version="1.1" id="Layer_1" xmlns="http://www.w3.org/2000/svg" xmlns:xlink="http://www.w3.org/1999/xlink" x="0px" y="0px"
	 viewBox="0 0 150 150" style="enable-background:new 0 0 150 150;" xml:space="preserve">
<style type="text/css">
	.st0{fill:#BE1622;}
</style>
<path class="st0" d="M131.8,112.1c-0.6,0-1-0.4-1-1V34.1c0-2.4-1.9-4.3-4.3-4.3l0,0H23.5c-2.4,0-4.3,1.9-4.3,4.3v76.9
	c0,0.6-0.4,1-1,1s-1-0.4-1-1V34.1c0-3.5,2.8-6.3,6.3-6.3h102.9c3.5,0,6.3,2.8,6.3,6.3v76.9C132.8,111.6,132.3,112.1,131.8,112.1
	C131.8,112.1,131.8,112.1,131.8,112.1L131.8,112.1z"/>
<path class="st0" d="M126.2,106.5H23.8c-0.6,0-1-0.4-1-1V34.4c0-0.6,0.4-1,1-1h102.4c0.6,0,1,0.4,1,1v71.1
	C127.2,106,126.7,106.5,126.2,106.5z M24.8,104.5h100.4V35.4H24.8V104.5z"/>
<path class="st0" d="M126.2,47.1H23.8c-0.6,0-1-0.4-1-1s0.4-1,1-1h102.4c0.6,0,1,0.4,1,1S126.7,47.1,126.2,47.1z"/>
<path class="st0" d="M131.7,122.2H18.3c-4.6,0-8.3-3.7-8.3-8.3v-2.8c0-0.6,0.4-1,1-1h52.3c0.4,0,0.7,0.2,0.9,0.6l1.8,3.6h18.2
	l1.8-3.6c0.2-0.3,0.5-0.6,0.9-0.6H139c0.6,0,1,0.4,1,1v2.8C140,118.4,136.3,122.2,131.7,122.2z M12,112.1v1.8c0,3.5,2.8,6.3,6.3,6.3
	h113.3c3.5,0,6.3-2.8,6.3-6.3v-1.8H87.4l-1.8,3.6c-0.2,0.3-0.5,0.6-0.9,0.6H65.3c-0.4,0-0.7-0.2-0.9-0.6l-1.8-3.6H12z"/>
<path class="st0" d="M33.2,41.2h-1.9c-0.6,0-1-0.4-1-1s0.4-1,1-1h1.9c0.6,0,1,0.4,1,1S33.8,41.2,33.2,41.2z"/>
<path class="st0" d="M41.2,41.2h-1.9c-0.6,0-1-0.4-1-1s0.4-1,1-1h1.9c0.6,0,1,0.4,1,1S41.7,41.2,41.2,41.2z"/>
<path class="st0" d="M49.1,41.2h-1.9c-0.6,0-1-0.4-1-1s0.4-1,1-1h1.9c0.6,0,1,0.4,1,1S49.6,41.2,49.1,41.2L49.1,41.2z"/>
<path class="st0" d="M55.8,47.1c-0.6,0-1-0.4-1-1V34.4c0-0.6,0.4-1,1-1s1,0.4,1,1v11.7C56.8,46.6,56.3,47.1,55.8,47.1z"/>
<path class="st0" d="M118,75.2H32c-0.6,0-1-0.4-1-1V56.3c0-0.6,0.4-1,1-1h86c0.6,0,1,0.4,1,1v17.8C119,74.7,118.6,75.2,118,75.2z
	 M33,73.2h84V57.3H33V73.2z"/>
<path class="st0" d="M118,75.2H94.5c-0.6,0-1-0.4-1-1V56.3c0-0.6,0.4-1,1-1H118c0.6,0,1,0.4,1,1v17.8C119,74.7,118.6,75.2,118,75.2z
	 M95.5,73.2H117V57.3H95.5V73.2z"/>
<path class="st0" d="M105,68.6c-2.5,0-4.6-2.1-4.6-4.6c0-2.5,2.1-4.6,4.6-4.6c1.2,0,2.4,0.5,3.2,1.3c1.8,1.8,1.8,4.7,0,6.5
	C107.4,68.1,106.2,68.6,105,68.6z M105,61.4c-1.4,0-2.6,1.2-2.6,2.6c0,1.4,1.2,2.6,2.6,2.6c1.4,0,2.6-1.2,2.6-2.6
	c0-0.7-0.3-1.3-0.8-1.8C106.3,61.7,105.7,61.4,105,61.4L105,61.4z"/>
<path class="st0" d="M111.1,71.1c-0.3,0-0.5-0.1-0.7-0.3l-3.5-3.5c-0.4-0.4-0.4-1,0-1.4c0.4-0.4,1-0.4,1.4,0c0,0,0,0,0,0l3.5,3.5
	c0.4,0.4,0.4,1,0,1.4C111.6,71,111.3,71.1,111.1,71.1z"/>
<path class="st0" d="M117.4,83.6H32.6c-0.6,0-1-0.4-1-1s0.4-1,1-1h84.8c0.6,0,1,0.4,1,1S117.9,83.6,117.4,83.6L117.4,83.6z"/>
<path class="st0" d="M117.4,91.6H32.6c-0.6,0-1-0.4-1-1s0.4-1,1-1h84.8c0.6,0,1,0.4,1,1S117.9,91.6,117.4,91.6L117.4,91.6z"/>
<path class="st0" d="M117.4,99.6H32.6c-0.6,0-1-0.4-1-1s0.4-1,1-1h84.8c0.6,0,1,0.4,1,1S117.9,99.6,117.4,99.6L117.4,99.6z"/>
</svg>
