<?xml version="1.0" encoding="utf-8"?>
<!-- Generator: Adobe Illustrator 28.1.0, SVG Export Plug-In . SVG Version: 6.00 Build 0)  -->
<svg version="1.1" id="Layer_1" xmlns="http://www.w3.org/2000/svg" xmlns:xlink="http://www.w3.org/1999/xlink" x="0px" y="0px"
	 viewBox="0 0 150 150" style="enable-background:new 0 0 150 150;" xml:space="preserve">
<style type="text/css">
	.st0{fill:#BE1622;}
</style>
<path class="st0" d="M65.6,134.7c-27.8,0-50.2-22.5-50.2-50.2s22.5-50.2,50.2-50.2s50.2,22.5,50.2,50.2l0,0
	C115.8,112.2,93.3,134.6,65.6,134.7z M65.6,36.2c-26.6,0-48.2,21.6-48.2,48.2s21.6,48.2,48.2,48.2s48.2-21.6,48.2-48.2
	C113.8,57.8,92.2,36.2,65.6,36.2z"/>
<path class="st0" d="M65.6,123.8c-21.8,0-39.4-17.6-39.4-39.4S43.8,45,65.6,45S105,62.6,105,84.4c0,0,0,0,0,0
	C105,106.2,87.3,123.8,65.6,123.8z M65.6,47c-20.7,0-37.4,16.8-37.4,37.4s16.8,37.4,37.4,37.4c20.7,0,37.4-16.8,37.4-37.4
	C103,63.8,86.2,47,65.6,47L65.6,47z"/>
<path class="st0" d="M65.6,113C49.8,113,37,100.2,37,84.4s12.8-28.6,28.6-28.6s28.6,12.8,28.6,28.6l0,0
	C94.1,100.2,81.4,113,65.6,113z M65.6,57.8C50.9,57.8,39,69.7,39,84.4S50.9,111,65.6,111s26.6-11.9,26.6-26.6c0,0,0,0,0,0
	C92.2,69.7,80.3,57.8,65.6,57.8L65.6,57.8z"/>
<path class="st0" d="M65.6,102.2c-9.8,0-17.8-7.9-17.8-17.8s7.9-17.8,17.8-17.8s17.8,7.9,17.8,17.8c0,0,0,0,0,0
	C83.3,94.2,75.4,102.2,65.6,102.2z M65.6,68.7c-8.7,0-15.8,7.1-15.8,15.8s7.1,15.8,15.8,15.8c8.7,0,15.7-7.1,15.8-15.7
	C81.3,75.7,74.3,68.7,65.6,68.7z"/>
<path class="st0" d="M65.6,41.5c-0.6,0-1-0.4-1-1V29.8c0-0.6,0.4-1,1-1s1,0.4,1,1v10.7C66.6,41.1,66.1,41.5,65.6,41.5z"/>
<path class="st0" d="M65.6,140c-0.6,0-1-0.4-1-1v-10.7c0-0.6,0.4-1,1-1s1,0.4,1,1V139C66.6,139.6,66.1,140,65.6,140z"/>
<path class="st0" d="M120.2,85.4h-10.7c-0.6,0-1-0.4-1-1s0.4-1,1-1h10.7c0.6,0,1,0.4,1,1S120.7,85.4,120.2,85.4z"/>
<path class="st0" d="M21.7,85.4H11c-0.6,0-1-0.4-1-1s0.4-1,1-1h10.7c0.6,0,1,0.4,1,1S22.2,85.4,21.7,85.4z"/>
<path class="st0" d="M132.7,18.5c-0.6,0-1-0.4-1-1c0-0.3,0.1-0.5,0.3-0.7l6.3-6.2c0.4-0.4,1-0.4,1.4,0c0.4,0.4,0.4,1,0,1.4l0,0
	l-6.3,6.2C133.3,18.4,133,18.5,132.7,18.5z"/>
<path class="st0" d="M65.6,85.4c-0.6,0-1-0.5-1-1c0-0.3,0.1-0.5,0.3-0.7l55.3-55c0.4-0.4,1-0.4,1.4,0c0.4,0.4,0.4,1,0,1.4l-55.3,55
	C66.1,85.3,65.9,85.4,65.6,85.4z"/>
<path class="st0" d="M127.3,31.8c-0.1,0-0.1,0-0.2,0l-6.5-1.5c-0.4-0.1-0.7-0.4-0.8-0.7l-1.6-6.5c-0.1-0.3,0-0.7,0.3-0.9L130,10.3
	c0.4-0.4,1-0.4,1.4,0c0.1,0.1,0.2,0.3,0.3,0.5l1.5,5.9l5.9,1.3c0.5,0.1,0.9,0.7,0.8,1.2c0,0.2-0.1,0.3-0.3,0.5L128,31.5
	C127.8,31.7,127.5,31.8,127.3,31.8z M121.6,28.5l5.3,1.2l9.9-10.2l-4.7-1.1c-0.4-0.1-0.7-0.4-0.8-0.7l-1.2-4.7l-9.9,10.2L121.6,28.5
	z"/>
</svg>
